<svg xmlns="http://www.w3.org/2000/svg" width="190" height="30" fill="none"><g fill="#878787" clip-path="url(#a)" style="mix-blend-mode:luminosity"><path d="M26.511 1.154A3.44 3.44 0 0 1 28.995.08h12.024c7.82 0 11.735 9.872 6.206 15.645L35.18 28.301c-.552.577-1.498.168-1.498-.648V16.577l1.392-1.454c1.106-1.154.323-3.129-1.241-3.129H16.13l10.381-10.84Z"/><path d="M23.302 27.417a3.44 3.44 0 0 1-2.484 1.074H8.794c-7.82 0-11.735-9.872-6.206-15.645L14.632.27c.552-.577 1.498-.168 1.498.648v11.076l-1.392 1.454c-1.106 1.155-.323 3.129 1.241 3.129h17.704l-10.381 10.84ZM119.659 9.6v14.282h4.179V9.6h-4.179Zm.29-2.376a2.46 2.46 0 0 0 1.812.744c.714 0 1.314-.248 1.798-.744a2.462 2.462 0 0 0 .741-1.805c0-.725-.247-1.332-.741-1.818-.484-.496-1.084-.744-1.798-.744a2.46 2.46 0 0 0-1.812.744c-.494.486-.741 1.093-.741 1.818 0 .708.247 1.31.741 1.805Z"/><path fill-rule="evenodd" d="M126.195 29.457V9.6h3.968v1.42h.051c.25-.247.519-.472.808-.676.935-.655 2.01-.983 3.227-.983 1.066 0 2.085.279 3.055.836.978.558 1.771 1.385 2.38 2.483.608 1.097.903 2.464.886 4.101.008 1.239-.164 2.319-.516 3.239-.353.911-.829 1.668-1.428 2.27a6.016 6.016 0 0 1-2.011 1.353 5.92 5.92 0 0 1-2.248.452c-1.199 0-2.274-.337-3.226-1.01a6.71 6.71 0 0 1-.681-.557h-.086v6.929h-4.179Zm7.194-8.867c.617-.008 1.159-.172 1.627-.49.467-.32.833-.77 1.097-1.355.265-.584.393-1.265.384-2.044.009-.796-.124-1.477-.397-2.044-.264-.575-.639-1.013-1.124-1.314-.485-.31-1.04-.46-1.666-.451a2.787 2.787 0 0 0-1.587.438c-.467.3-.837.739-1.111 1.314-.273.566-.41 1.252-.41 2.057 0 .78.137 1.46.41 2.044.282.584.661 1.036 1.137 1.354a2.962 2.962 0 0 0 1.64.491Z" clip-rule="evenodd"/><path d="M144.594 23.656a6.851 6.851 0 0 0 2.433.438c.97 0 1.856-.19 2.658-.57.811-.38 1.459-.912 1.944-1.593.494-.69.74-1.482.74-2.376 0-.708-.149-1.305-.449-1.792a3.8 3.8 0 0 0-1.111-1.195 6.18 6.18 0 0 0-1.362-.73 12.113 12.113 0 0 0-1.23-.424c-.458-.133-.899-.27-1.322-.412a3.972 3.972 0 0 1-1.045-.504c-.273-.195-.41-.451-.41-.77s.137-.584.41-.796c.273-.213.617-.319 1.032-.319.493 0 .899.133 1.216.398.327.266.573.54.741.823l3.213-1.394c-.405-.92-1.093-1.659-2.063-2.216-.961-.558-2.045-.836-3.253-.836-.969 0-1.834.181-2.592.544a4.474 4.474 0 0 0-1.785 1.513c-.432.637-.648 1.376-.648 2.217 0 .796.185 1.473.555 2.03a4.593 4.593 0 0 0 1.442 1.38 8.706 8.706 0 0 0 1.904.837c.291.08.609.168.952.265a8.41 8.41 0 0 1 1.005.346c.318.132.577.292.78.477a.87.87 0 0 1 .093 1.235 1.483 1.483 0 0 1-.555.438c-.239.106-.516.16-.834.16a2.344 2.344 0 0 1-1.56-.558c-.441-.372-.771-.766-.992-1.182l-3.279 1.447a5.297 5.297 0 0 0 1.335 1.885 6.47 6.47 0 0 0 2.037 1.234Zm24.761.226V9.6h3.98v1.818h.072a5.206 5.206 0 0 1 1.052-1.101c.794-.62 1.732-.93 2.817-.93.898 0 1.661.222 2.287.664.483.33.876.772 1.181 1.328h.075a4.83 4.83 0 0 1 1.64-1.354 5.967 5.967 0 0 1 2.738-.637c.942 0 1.719.168 2.327.504a3.776 3.776 0 0 1 1.428 1.3c.343.532.586 1.116.727 1.753.142.628.212 1.239.212 1.832v9.105h-4.206v-8.588c0-.779-.162-1.376-.488-1.792-.318-.424-.785-.637-1.402-.637-.406 0-.767.093-1.085.279-.308.177-.555.447-.74.81-.176.362-.265.81-.265 1.34v8.588h-4.178v-8.588c0-.779-.163-1.376-.49-1.792-.326-.424-.797-.637-1.414-.637-.6 0-1.098.208-1.495.624-.396.407-.595 1.018-.595 1.832v8.561h-4.178Zm-10.227.212c-.978 0-1.868-.208-2.67-.624a4.782 4.782 0 0 1-1.918-1.858c-.467-.823-.701-1.836-.701-3.04V9.6h4.178v8.415c0 .823.212 1.451.635 1.885.432.424.957.637 1.574.637.459 0 .86-.102 1.204-.305a2.09 2.09 0 0 0 .819-.863c.203-.38.304-.832.304-1.354V9.6h4.179v9.278c0 .513.075.884.225 1.114.15.23.454.43.912.598l-1.481 3.504c-1.049-.274-1.816-.633-2.301-1.075a2.247 2.247 0 0 1-.555-.77h-.106a7.31 7.31 0 0 1-1.229.995c-.891.567-1.914.85-3.069.85Z"/><path fill-rule="evenodd" d="M110.61 24.094c-1.367 0-2.615-.314-3.742-.942a7.222 7.222 0 0 1-2.685-2.602c-.661-1.106-.992-2.38-.992-3.822 0-1.443.331-2.717.992-3.823a7.12 7.12 0 0 1 2.685-2.588c1.127-.62 2.375-.93 3.742-.93 1.393 0 2.649.31 3.769.93a6.926 6.926 0 0 1 2.657 2.588c.662 1.106.992 2.38.992 3.823 0 1.442-.33 2.716-.992 3.822a6.991 6.991 0 0 1-2.671 2.602c-1.119.628-2.371.942-3.755.942Zm0-3.583c.652 0 1.238-.16 1.758-.478.521-.319.93-.761 1.23-1.328.3-.566.45-1.225.45-1.977 0-.726-.145-1.372-.436-1.938a3.318 3.318 0 0 0-1.204-1.327c-.511-.328-1.102-.492-1.772-.492-.661 0-1.256.16-1.785.478-.52.31-.93.748-1.23 1.314-.299.567-.45 1.221-.45 1.965 0 .752.151 1.411.45 1.977a3.461 3.461 0 0 0 1.243 1.328 3.278 3.278 0 0 0 1.746.478ZM90.826 29.23c.987.293 2.072.439 3.253.439 1.102 0 2.112-.142 3.029-.425.916-.274 1.71-.69 2.38-1.248a5.623 5.623 0 0 0 1.573-2.07c.37-.823.555-1.779.555-2.867V9.586h-3.794v1.394h-.08a6.23 6.23 0 0 0-.82-.664c-.917-.628-1.987-.942-3.213-.942-1.058 0-2.076.27-3.055.81-.978.53-1.78 1.327-2.406 2.389-.618 1.053-.926 2.376-.926 3.969 0 1.194.18 2.234.542 3.119.361.885.842 1.623 1.442 2.216a6.18 6.18 0 0 0 2.023 1.315c.74.283 1.485.424 2.234.424 1.209 0 2.284-.332 3.227-.995.298-.213.578-.447.836-.704h.063v1.38c0 .682-.22 1.23-.661 1.646-.44.425-.974.735-1.6.93a6.094 6.094 0 0 1-1.811.292c-.68 0-1.35-.11-2.01-.332a8.112 8.112 0 0 1-1.72-.77l-1.375 3.292c.564.3 1.336.593 2.314.876Zm5.448-9.503c-.484.319-1.044.478-1.679.478-.626 0-1.177-.16-1.653-.478a3.359 3.359 0 0 1-1.124-1.34c-.273-.576-.41-1.235-.41-1.978 0-.743.137-1.39.41-1.938.282-.549.67-.969 1.164-1.261a3.162 3.162 0 0 1 1.68-.451c.625 0 1.176.146 1.652.438.476.292.85.712 1.124 1.26.273.54.41 1.19.41 1.952 0 .752-.141 1.416-.423 1.99a3.323 3.323 0 0 1-1.15 1.328ZM78.84 24.094c-1.367 0-2.614-.314-3.743-.942a7.222 7.222 0 0 1-2.684-2.602c-.661-1.106-.992-2.38-.992-3.822 0-1.443.33-2.717.992-3.823a7.12 7.12 0 0 1 2.684-2.588c1.129-.62 2.376-.93 3.742-.93 1.393 0 2.65.31 3.769.93a6.93 6.93 0 0 1 2.658 2.588c.661 1.106.992 2.38.992 3.823 0 1.442-.331 2.716-.992 3.822a7 7 0 0 1-2.672 2.602c-1.119.628-2.37.942-3.755.942Zm0-3.583c.652 0 1.237-.16 1.758-.478.52-.319.93-.761 1.23-1.328.3-.566.45-1.225.45-1.977 0-.726-.146-1.372-.437-1.938a3.306 3.306 0 0 0-1.203-1.327c-.511-.328-1.103-.492-1.772-.492-.661 0-1.256.16-1.786.478-.52.31-.93.748-1.23 1.314-.299.567-.45 1.221-.45 1.965 0 .752.151 1.411.45 1.977a3.467 3.467 0 0 0 1.244 1.328c.52.318 1.101.478 1.745.478Z" clip-rule="evenodd"/><path d="M60.125 4.317v19.565h11.36v-3.876h-7.023V4.317h-4.337Z"/></g><defs><clipPath id="a"><path fill="#fff" d="M0 0h190v30H0z"/></clipPath></defs></svg>