<svg xmlns="http://www.w3.org/2000/svg" width="108" height="56" fill="none"><g fill="#939393" style="mix-blend-mode:luminosity"><path d="M97.66 5.448c1.009 1.496 1.977 3.342 1.501 5.32-1.643-.933-2.965-2.457-4.013-3.962-1.056-1.514-2.152-3.125-2.527-4.992 2.073.526 3.928 1.987 5.039 3.634ZM8.566 10.765c-.475-1.978.495-3.823 1.506-5.319 1.112-1.646 2.968-3.105 5.042-3.63-.377 1.866-1.475 3.476-2.531 4.99-1.05 1.504-2.373 3.027-4.017 3.96Z"/><path d="M7.12 14.56c.371-1.567.363-3.282.01-4.752-.31-1.291-.762-3.117-2.249-3.733-1.08 1.72-1.514 4.062-.885 5.818.456 1.269 1.274 2.947 2.973 3.207 1.558.357 3.133-.468 4.378-1.15 1.384-.756 2.74-1.961 3.563-3.393-1.511-.757-3.231-.143-4.526.446-1.395.634-2.676 1.995-3.264 3.557Zm30.245 1.505V8.198h-2.706v2.866h-4.06V8.198h-2.705v7.867H30.6v-2.856h4.059v2.856h2.706Zm8.969-7.867h2.99l-4.242 5.271v2.596h-2.716v-2.586l-4.19-5.28h3.08l2.504 3.146 2.574-3.147Z"/><path fill-rule="evenodd" d="M58.748 8.87c.535.42.838 1.132.838 2.164 0 .842-.212 1.473-.616 1.914-.545.621-1.444.902-2.615.912-.364.01-3.474 0-3.474 0v2.205h-2.716V8.198h6.15c1.09 0 1.918.22 2.433.672Zm-2.01 2.775c.081-.14.121-.32.121-.57 0-.261-.05-.482-.14-.602-.173-.25-.496-.37-1.02-.37H52.86v1.923h2.817c.566 0 .899-.13 1.06-.38Z" clip-rule="evenodd"/><path d="M69.02 14.11v1.955h-8.35V8.198h8.28v1.964h-5.615v1.012h5.453v1.914h-5.453v1.023h5.685Z"/><path fill-rule="evenodd" d="M79.155 9c.364.37.535.882.535 1.593 0 .611-.151 1.133-.404 1.483-.282.381-.717.702-1.252.782l2.393 3.207h-3.009l-1.969-2.776h-2.453v2.776H70.3V8.198h6.31c1.252 0 2.07.3 2.545.802Zm-2.181 2.255a.85.85 0 0 0 .09-.411c0-.15-.02-.31-.09-.411-.141-.26-.424-.33-.848-.33h-3.12v1.432h3.17c.434 0 .697-.08.798-.28Z" clip-rule="evenodd"/><path d="M67.573 25.932c0-1.798-1.152-2.743-3.836-3.032a91.238 91.238 0 0 0-2.526-.25c-2.077-.223-2.698-.34-2.698-.866 0-.472.489-.696 2.354-.696 1.322 0 2.063.25 2.354.63.145.184.198.329.212.473h3.809a3.573 3.573 0 0 0-.384-1.155c-.688-1.313-2.341-2.363-5.899-2.363-4.007 0-6.202 1.405-6.202 3.242 0 1.772 1.243 2.81 4.602 3.111.38.032 1.196.109 1.863.171l.042.004.007.001h.003l.36.034c1.759.184 2.235.302 2.235.853 0 .512-.463.788-2.407.788-1.508 0-2.394-.224-2.711-.604a1.285 1.285 0 0 1-.252-.551H54.69c.04.262.106.682.252 1.023.648 1.444 2.34 2.547 6.269 2.547 4.219 0 6.362-1.182 6.362-3.36Z"/><path fill-rule="evenodd" d="M40.567 28.084c.397-.46.595-1.155.595-1.864 0-.604-.158-1.181-.489-1.562-.397-.512-1.098-.88-1.838-.971.502-.066.978-.328 1.256-.67.344-.406.503-.958.503-1.627 0-.67-.199-1.26-.648-1.706-.503-.512-1.415-.853-2.844-.853h-8.967v10.303h9.218c1.468 0 2.606-.315 3.214-1.05Zm-3.65-6.077c0 .25-.08.46-.212.604-.185.17-.529.236-.978.236H31.6v-1.68h4.034c.503 0 .847.066 1.032.236.172.145.251.355.251.604Zm.397 4.515c-.212.197-.582.276-1.204.276H31.6v-1.72h4.55c.582 0 .926.079 1.124.25.159.157.225.354.225.617 0 .249-.053.446-.185.577Z" clip-rule="evenodd"/><path d="M53.62 26.575v2.559H42.682V18.83h10.845v2.572h-7.353v1.326h7.142v2.507h-7.142v1.338h7.446Zm26.824-5.159v-2.585H68.052v2.585h4.378v7.718h3.623v-7.718h4.391Zm-.318 16.836h-.583l-.042-.557c-.178.282-.554.62-1.35.62-1.343 0-1.968-.804-1.968-2.856 0-1.587.397-2.863 2.038-2.863 1.423 0 1.856.924 1.877 1.918h-.71c-.022-.649-.314-1.248-1.152-1.248-1.009 0-1.3.6-1.3 2.214 0 1.686.362 2.215 1.315 2.215.667 0 1.058-.367 1.187-.804V35.84h-1.436v-.642h2.117v1.622c0 .485.005 1.002.006 1.262l.001.124v.046Z"/><path fill-rule="evenodd" d="M28.272 36.848h1.99l.412 1.404h.753l-1.648-5.586h-.917L27.1 38.252h.746l.426-1.404Zm1.812-.628h-1.62s.704-2.256.718-2.306l.12-.536.08.37.034.166c.008.035.668 2.306.668 2.306Z" clip-rule="evenodd"/><path d="M36.824 32.666h.682l-1.329 5.586h-.846s-.945-4.345-.945-4.528c-.007.183-.974 4.528-.974 4.528h-.845l-1.329-5.586h.767s1.03 4.422 1.03 4.598c0-.176.946-4.598.946-4.598h.846s.945 4.429.945 4.598c0-.17 1.052-4.598 1.052-4.598Z"/><path fill-rule="evenodd" d="M40.422 36.848h-1.99l-.427 1.404h-.746l1.763-5.586h.916l1.65 5.586h-.754l-.412-1.404Zm-1.798-.628h1.62s-.66-2.27-.668-2.306l-.054-.254-.06-.282-.12.536-.718 2.306Zm5.701-3.554c.867 0 1.336.402 1.336 1.573 0 .994-.377 1.326-.768 1.438l1.08 2.575h-.781l-1.002-2.434h-1.364v2.434h-.711v-5.586h2.21Zm-.107 2.518c.562 0 .697-.29.697-.924 0-.72-.213-.938-.732-.938h-1.35v1.862h1.385Zm6.172.183c0 1.319-.099 1.855-.383 2.257-.284.388-.732.627-1.457.627h-1.933v-5.585H48.5c.711 0 1.265.212 1.521.592.284.41.37.917.37 2.11ZM48.4 37.59c.434 0 .797-.113.982-.36.199-.268.255-.811.255-1.862 0-.881-.05-1.354-.255-1.657-.192-.261-.562-.374-.995-.374h-1.052v4.253H48.4Z" clip-rule="evenodd"/><path d="M57.89 32.666h.683l-1.33 5.586h-.845s-.945-4.345-.945-4.528c-.007.183-.974 4.528-.974 4.528h-.845l-1.33-5.586h.768s1.03 4.422 1.03 4.598c0-.176.946-4.598.946-4.598h.846s.945 4.429.945 4.598c0-.17 1.052-4.598 1.052-4.598Zm1.942 0v5.586h-.739v-5.586h.74Zm4.621 0v5.586h-.818l-2.096-4.33v4.33h-.69v-5.586h.86l2.047 4.267v-4.267h.697Zm4.613 0v5.586h-.817l-2.096-4.33v4.33h-.69v-5.586h.86l2.047 4.267v-4.267h.696Zm1.742 0v5.586h-.738v-5.586h.738Zm4.625 0v5.586h-.817l-2.096-4.33v4.33h-.69v-5.586h.86l2.047 4.267v-4.267h.696ZM36.273 49.26l-.815-2.487-.814 2.487h-2.635l2.132 1.537-.815 2.487 2.132-1.537 2.132 1.537-.814-2.487 2.132-1.537h-2.635Zm9.417 0-.83-2.487-.831 2.487h-2.69l2.176 1.538-.83 2.487 2.175-1.537 2.175 1.537-.83-2.487 2.175-1.538h-2.69Zm9.328 0-.83-2.487-.832 2.487h-2.689l2.176 1.538-.831 2.487 2.175-1.537 2.176 1.537-.831-2.487 2.175-1.538h-2.689Zm9.324 0-.831-2.487-.831 2.487h-2.69l2.176 1.538-.83 2.487 2.175-1.537 2.175 1.537-.83-2.487 2.175-1.538h-2.69Zm9.385 0-.814-2.487-.814 2.487h-2.635l2.131 1.538-.813 2.487 2.132-1.537 2.131 1.537-.815-2.487 2.133-1.538h-2.636ZM2.322 18.788c.766 1.16 1.952 2.613 3.68 2.572 1.573.078 2.931-.987 4.001-1.876 1.152-.957 2.192-2.357 2.631-3.87-1.608-.464-3.148.396-4.296 1.207-1.199.847-2.12 2.398-2.319 3.99a10.26 10.26 0 0 0-1.151-4.57c-.641-1.213-1.535-2.853-3.13-3.18-.627 1.887-.427 4.197.584 5.727Z"/><path d="M6.515 27.608c-1.604.267-3.17-.708-4.186-1.856C1.02 24.274.24 22.292.4 20.308c1.649.041 2.897 1.455 3.82 2.525a10.584 10.584 0 0 1 2.199 4.23c-.172-1.558.355-3.24 1.333-4.28.944-1.003 2.267-2.096 3.913-1.92-.036 1.579-.833 3.084-1.656 4.21-.767 1.051-1.949 2.35-3.494 2.535Z"/><path d="M3.55 32.857c1.479.955 3.27 1.9 5.155 1.185 1.545-.543 2.528-2.087 3.132-3.504.64-1.5 1.068-3.232.772-4.875-1.698.15-3.107 1.355-3.855 2.827-.782 1.539-.931 3.37-.33 4.984-.888-1.66-2.186-3.003-3.56-4.244-1.25-1.128-3.05-2.316-4.864-2.093.345 2.225 1.713 4.533 3.55 5.72Z"/><path d="M12.512 40.057c1.454-.863 2.04-2.678 2.278-4.234.258-1.678.247-3.528-.455-5.12-1.687.468-2.845 1.975-3.228 3.626a6.58 6.58 0 0 0 .92 5.087c-1.306-1.487-3.044-2.715-4.708-3.577-1.609-.831-3.581-1.835-5.513-1.229.932 2.256 2.924 4.356 5.132 5.224 1.71.673 3.79 1.338 5.574.223Z"/><path d="M19.406 40.64c.213 1.62.207 3.673-1.06 4.92-1.583 1.608-4.033 1.298-5.923.944-2.537-.475-5.393-2.193-6.923-4.48 1.87-1.02 4.155-.367 6.006.162l.106.03c2.066.59 4.267 1.54 6.108 2.838-1.469-1.318-2.54-3.252-2.592-5.2-.047-1.744.716-3.61 2.356-4.44 1.146 1.492 1.682 3.407 1.922 5.226Z"/><path d="M26.758 50.145c.933-1.762.009-3.83-.728-5.36-.87-1.807-2.06-3.65-3.764-4.972-1.635 1.398-1.48 3.4-.993 5.139.578 2.067 2.582 3.83 4.657 4.834a26.934 26.934 0 0 0-7.525-1.58l-.253-.017c-2.006-.13-4.618-.298-6.217 1.159 2.417 2.039 5.85 3.215 8.877 3.154 2.027-.04 4.81-.279 5.946-2.357Zm73.844-35.58c-.585-1.563-1.867-2.926-3.26-3.561-1.295-.59-3.015-1.205-4.526-.45.823 1.433 2.176 2.639 3.56 3.397 1.243.682 2.817 1.508 4.376 1.153 1.698-.258 2.52-1.936 2.976-3.206.632-1.754.2-4.097-.879-5.818-1.487.615-1.941 2.44-2.252 3.732-.354 1.47-.364 3.186.005 4.753Z"/><path d="M99.385 16.824c1.198.848 2.117 2.398 2.314 3.99a10.28 10.28 0 0 1 1.157-4.567c.641-1.213 1.537-2.852 3.132-3.18.625 1.89.423 4.2-.59 5.728-.765 1.158-1.951 2.609-3.676 2.57-1.575.08-2.935-.988-4.005-1.878-1.151-.959-2.19-2.36-2.626-3.873 1.607-.463 3.146.398 4.294 1.21Z"/><path d="M101.292 27.073c.176-1.559-.349-3.244-1.329-4.286-.942-1.004-2.264-2.098-3.91-1.924.033 1.58.83 3.085 1.652 4.213.766 1.05 1.945 2.35 3.489 2.537 1.606.27 3.173-.706 4.191-1.853 1.31-1.477 2.09-3.458 1.935-5.443-1.65.04-2.899 1.453-3.823 2.522a10.583 10.583 0 0 0-2.205 4.234Z"/><path d="M98.958 28.493c.78 1.54.93 3.371.327 4.984.888-1.66 2.188-3.001 3.564-4.241 1.25-1.128 3.052-2.314 4.865-2.09-.346 2.225-1.717 4.532-3.556 5.718-1.477.952-3.268 1.896-5.15 1.183-1.547-.542-2.53-2.088-3.134-3.508-.64-1.502-1.065-3.233-.767-4.876 1.698.15 3.105 1.357 3.851 2.83Z"/><path d="M95.673 39.413a6.587 6.587 0 0 0 .923-5.083c-.38-1.651-1.538-3.16-3.225-3.628-.703 1.59-.715 3.44-.46 5.119.238 1.553.82 3.364 2.265 4.23 1.786 1.124 3.871.46 5.583-.213 2.209-.867 4.204-2.965 5.136-5.22-1.93-.608-3.904.394-5.513 1.225-1.664.86-3.401 2.085-4.709 3.57Z"/><path d="M88.293 40.635c-.214 1.619-.21 3.673 1.056 4.92 1.58 1.61 4.032 1.301 5.922.949 2.538-.474 5.395-2.19 6.928-4.474-1.868-1.023-4.156-.372-6.007.156l-.106.03c-2.066.588-4.268 1.536-6.11 2.832 1.47-1.316 2.542-3.248 2.596-5.197.049-1.743-.712-3.609-2.352-4.441-1.147 1.49-1.685 3.406-1.927 5.225Z"/><path d="M86.876 52.496c-2.028-.043-4.81-.283-5.944-2.361l-.016-.029c-.906-1.757.015-3.81.749-5.33.872-1.808 2.064-3.649 3.768-4.97 1.634 1.4 1.476 3.4.989 5.139-.58 2.067-2.586 3.828-4.663 4.831a26.942 26.942 0 0 1 7.527-1.575l.254-.016c2.007-.129 4.618-.295 6.215 1.163-2.419 2.037-5.853 3.211-8.88 3.148Z"/></g></svg>