<svg xmlns="http://www.w3.org/2000/svg" width="40" height="40" fill="none"><path fill="#EE634E" d="M35.04 9.045h-4.82v12.798c0 4.027-3.276 7.304-7.303 7.304h-7.645l-2.746 1.12a4.967 4.967 0 0 0 4.557 3.002h8.105l10.177 4.15-.01-4.16A4.966 4.966 0 0 0 40 28.309V14.005a4.966 4.966 0 0 0-4.96-4.96Z"/><path fill="#EE634E" d="M14.813 26.803h8.104a4.966 4.966 0 0 0 4.96-4.96V7.54a4.966 4.966 0 0 0-4.96-4.96H4.96A4.966 4.966 0 0 0 0 7.54v14.303a4.967 4.967 0 0 0 4.641 4.95l-.003 4.16 10.175-4.15ZM18.6 15.851v-2.344h2.344v2.344H18.6Zm-9.323 0H6.933v-2.344h2.344v2.344Zm3.49-2.344h2.344v2.344h-2.344v-2.344Z"/></svg>