<svg xmlns="http://www.w3.org/2000/svg" width="40" height="40" fill="none"><g fill="#EE634E" clip-path="url(#a)"><path d="M10.508 10.078h18.984V2.344h1.914v6.719h2.344v-6.72h2.07V0H4.18v2.344h6.328v7.734Zm2.344 4.73c0 3.942 3.206 7.149 7.148 7.149 3.942 0 7.148-3.207 7.148-7.149v-2.386H12.852v2.386Zm16.511 7.472L20 34.94l-9.363-12.66c-4.449 1.142-7.746 5.187-7.746 9.988V40h34.218v-7.732c0-4.8-3.297-8.846-7.747-9.988Z"/><path d="M26.686 21.956h-.448A9.452 9.452 0 0 1 20 24.3a9.452 9.452 0 0 1-6.238-2.344h-.448L20 30.998l6.686-9.042Z"/></g><defs><clipPath id="a"><path fill="#fff" d="M0 0h40v40H0z"/></clipPath></defs></svg>