<svg xmlns="http://www.w3.org/2000/svg" width="204" height="34" fill="none"><g fill="#878787" clip-path="url(#a)" style="mix-blend-mode:luminosity"><path d="M114.497 25.095h4.364v-14.95h-4.364v14.95Zm0-17.282h4.364V4.258h-4.364v3.555Zm7.176 22.179h4.364v-6.587h.063c.93 1.283 2.439 2.128 4.748 2.128 4.236 0 7.124-3.06 7.124-7.898 0-4.663-2.792-7.898-7.155-7.898-2.246 0-3.787.962-4.845 2.274h-.096v-1.866h-4.203v19.847Zm8.245-7.752c-2.598 0-3.978-1.778-3.978-4.488 0-2.681 1.09-4.809 3.818-4.809 2.695 0 3.785 1.982 3.785 4.809 0 2.826-1.411 4.488-3.625 4.488Zm16.757 3.293c4.107 0 6.93-1.807 6.93-4.809 0-3.497-3.048-4.196-5.807-4.72-2.343-.438-4.524-.555-4.524-1.837 0-1.078 1.123-1.661 2.823-1.661 1.862 0 2.985.583 3.176 2.186h3.947c-.32-3.002-2.727-4.955-7.058-4.955-3.754 0-6.706 1.545-6.706 4.78 0 3.264 2.888 3.992 5.839 4.517 2.246.408 4.331.554 4.331 1.982 0 1.049-1.09 1.72-3.015 1.72-1.958 0-3.305-.759-3.593-2.478h-4.043c.257 3.177 2.92 5.275 7.7 5.275Zm23.496-.438v-14.95h-4.363v8.626c0 1.982-1.251 3.38-3.304 3.38-1.862 0-2.727-.961-2.727-2.71v-9.296h-4.332v9.966c0 3.264 2.053 5.392 5.711 5.392 2.311 0 3.594-.787 4.716-2.157h.097v1.749h4.202Zm2.825.001h4.363V16.41c0-1.982 1.188-3.264 2.953-3.264 1.603 0 2.534.874 2.534 2.565v9.384h4.363V16.41c0-1.982 1.123-3.264 2.952-3.264 1.604 0 2.535.874 2.535 2.565v9.384h4.363V15.04c0-3.264-1.957-5.304-5.423-5.304-2.085 0-3.818.991-4.941 2.623h-.063c-.802-1.573-2.471-2.623-4.557-2.623-2.277 0-3.881 1.05-4.779 2.42h-.097v-2.012h-4.203v14.95ZM.77 25.095h4.363V4.258H.77v20.837Zm15.035.438c5.102 0 8.599-3.44 8.599-7.898 0-4.459-3.497-7.898-8.599-7.898-5.101 0-8.598 3.44-8.598 7.898 0 4.459 3.497 7.898 8.598 7.898Zm0-3.031c-2.695 0-4.17-1.953-4.17-4.867 0-2.914 1.475-4.896 4.17-4.896 2.663 0 4.171 1.982 4.171 4.896 0 2.914-1.508 4.867-4.17 4.867Zm17.876 7.694c2.439 0 4.556-.525 5.936-1.69 1.219-1.02 1.957-2.449 1.957-4.547V10.145H37.37v1.574h-.064c-.995-1.253-2.503-1.982-4.556-1.982-4.171 0-7.123 2.856-7.123 7.315 0 4.517 3.594 7.14 7.251 7.14 2.086 0 3.337-.758 4.3-1.748h.096v1.632c0 2.04-1.188 3.118-3.658 3.118-2.021 0-2.952-.729-3.305-1.661h-4.33c.448 2.914 3.207 4.663 7.7 4.663Zm-.064-9.18c-2.246 0-3.722-1.487-3.722-4.022 0-2.506 1.476-4.08 3.69-4.08 2.63 0 3.914 1.865 3.914 4.05 0 2.216-1.123 4.052-3.882 4.052Zm18.561 4.517c5.101 0 8.598-3.44 8.598-7.898 0-4.459-3.497-7.898-8.598-7.898-5.101 0-8.599 3.44-8.599 7.898 0 4.459 3.498 7.898 8.599 7.898Zm0-3.031c-2.695 0-4.171-1.953-4.171-4.867 0-2.914 1.476-4.896 4.17-4.896 2.664 0 4.172 1.982 4.172 4.896 0 2.914-1.508 4.867-4.171 4.867ZM198.644 7.69c0-.67.598-1.214 1.337-1.214h2.673c.739 0 1.338.544 1.338 1.215 0 .67-.599 1.214-1.338 1.214h-2.673c-.739 0-1.337-.544-1.337-1.214Z"/><path fill-rule="evenodd" d="M87.239 0c10.336 0 18.716 7.611 18.716 17s-8.38 17-18.716 17-18.716-7.611-18.716-17S76.903 0 87.24 0Zm-.676 1.272c-2.136.273-4.169 1.831-5.747 4.438-.458.756-.87 1.591-1.23 2.493 2.145-.49 4.503-.779 6.977-.823V1.272Zm-8.56 7.34c.448-1.277.996-2.45 1.628-3.494.782-1.293 1.71-2.408 2.757-3.265-5.689 1.5-10.173 5.573-11.825 10.74.944-.95 2.172-1.793 3.594-2.504a22.83 22.83 0 0 1 3.847-1.478Zm-.449 1.436a25.99 25.99 0 0 0-.906 6.338h-6.724c.3-1.94 2.016-3.787 4.885-5.22a20.509 20.509 0 0 1 2.745-1.118Zm.447 6.338c.056-2.453.444-4.755 1.088-6.79 2.24-.583 4.774-.937 7.474-.987v2.654c-1.008 2.342-3.062 4.208-5.64 5.123H78Zm-1.353 1.229h-6.724c.3 1.939 2.016 3.786 4.885 5.22.833.415 1.752.79 2.745 1.117a25.99 25.99 0 0 1-.906-6.338Zm2.44 6.788c-.642-2.034-1.031-4.336-1.087-6.788h2.922c2.578.914 4.632 2.78 5.64 5.122v2.654c-2.7-.05-5.235-.403-7.474-.988Zm-1.084.986a22.827 22.827 0 0 1-3.847-1.478c-1.422-.71-2.65-1.554-3.594-2.504 1.652 5.167 6.136 9.24 11.825 10.74-1.047-.857-1.975-1.973-2.757-3.265a18.704 18.704 0 0 1-1.627-3.493Zm8.559 7.339c-2.136-.273-4.169-1.831-5.747-4.438a16.939 16.939 0 0 1-1.23-2.493c2.145.49 4.503.779 6.977.823v6.108Zm5.527-.58c1.046-.858 1.975-1.974 2.757-3.266a18.698 18.698 0 0 0 1.628-3.493 22.862 22.862 0 0 0 3.846-1.478c1.422-.71 2.651-1.554 3.594-2.504-1.653 5.167-6.136 9.24-11.825 10.74Zm2.803-6.35a17 17 0 0 1-1.231 2.492c-1.578 2.607-3.611 4.165-5.747 4.438V26.62c2.474-.044 4.832-.333 6.978-.823Zm2.03-1.846a20.485 20.485 0 0 0 2.745-1.118c2.87-1.433 4.586-3.28 4.886-5.22H97.83a26.023 26.023 0 0 1-.906 6.338Zm-.446-6.338c-.056 2.453-.444 4.755-1.088 6.79-2.24.584-4.774.936-7.474.987V22.74c1.007-2.343 3.062-4.21 5.641-5.125h2.921Zm1.353-1.229h6.724c-.3-1.939-2.016-3.786-4.886-5.22a20.485 20.485 0 0 0-2.744-1.117c.539 1.95.857 4.09.906 6.338Zm-2.44-6.787c.644 2.034 1.032 4.336 1.088 6.789h-2.92c-2.58-.915-4.635-2.782-5.642-5.125V8.61c2.7.05 5.235.404 7.474.988Zm1.086-.986c1.404.407 2.696.904 3.846 1.478 1.422.71 2.651 1.554 3.594 2.504-1.653-5.167-6.136-9.24-11.825-10.74 1.046.857 1.975 1.972 2.757 3.265a18.7 18.7 0 0 1 1.628 3.493Zm-8.56-7.339c2.136.273 4.169 1.831 5.747 4.438.457.756.87 1.591 1.231 2.493-2.146-.49-4.504-.779-6.978-.823V1.272Z" clip-rule="evenodd"/></g><defs><clipPath id="a"><path fill="#fff" d="M0 0h204v34H0z"/></clipPath></defs></svg>