<svg xmlns="http://www.w3.org/2000/svg" width="160" height="28" fill="none"><g fill="#878787" clip-path="url(#a)" style="mix-blend-mode:luminosity"><path d="M61.558 8.703c0 5.204 0 7.258-6.882 7.258 6.882 0 6.882 2.054 6.882 7.258 0-5.173 0-7.258 6.774-7.258-6.774 0-6.774-2.085-6.774-7.258Z"/><path fill-rule="evenodd" d="M27.624 27.568c-2.38 0-4.472-.477-6.277-1.432-1.785-.975-3.184-2.328-4.195-4.059a10.632 10.632 0 0 1-.449-.886l-.799 5.96H.047v-.299h.03c.714 0 1.289-.189 1.725-.567.436-.378.655-.925.655-1.641V7.455c0-.716-.219-1.293-.655-1.73-.436-.438-1.011-.657-1.725-.657h-.03v-.299h9.49v.299h-.119c-.714 0-1.289.219-1.725.656-.437.438-.655 1.015-.655 1.731v17.308c0 .637.15 1.134.447 1.492.317.338.862.508 1.636.508h.625c1.765 0 3.252-.548 4.462-1.642 1.18-1.067 1.936-2.56 2.267-4.479-.54-1.403-.81-2.964-.81-4.682 0-2.328.495-4.357 1.487-6.088a10.44 10.44 0 0 1 4.195-4.058c1.805-.975 3.897-1.462 6.277-1.462 2.323 0 4.362.464 6.118 1.392 1.873-.928 4.049-1.392 6.526-1.392.774 0 1.408.03 1.904.089.516.04.972.09 1.369.15.397.059.833.119 1.309.178.496.04 1.11.06 1.844.06l.893 5.968h-.298c-.357-1.89-1.16-3.372-2.41-4.446-1.229-1.074-2.766-1.612-4.61-1.612-1.131 0-2.163.269-3.095.806a7.016 7.016 0 0 0-1.661 1.334 7.927 7.927 0 0 0-.719.904c-.191.285-.37.587-.538.906-.22.42-.42.87-.6 1.348a13.612 13.612 0 0 0-.409 1.268c-.357 1.372-.535 2.894-.535 4.565 0 1.54.14 2.957.42 4.25l-.474 1.409a9.573 9.573 0 0 1-.883 1.94 7.1 7.1 0 0 1-.665.895l-.022.026a10.281 10.281 0 0 1-1.887-2.313c-1.051-1.75-1.577-3.81-1.577-6.177 0-2.308.526-4.327 1.577-6.058a10.46 10.46 0 0 1 2.736-3.002 6.585 6.585 0 0 0-1.486-1.295 5.197 5.197 0 0 0-2.827-.806 5.197 5.197 0 0 0-2.826.806c-.853.537-1.577 1.293-2.172 2.268-.615.975-1.09 2.159-1.428 3.551-.317 1.373-.476 2.895-.476 4.566 0 1.671.159 3.193.476 4.566.337 1.373.813 2.546 1.428 3.521.595.975 1.319 1.73 2.172 2.268a5.197 5.197 0 0 0 2.826.806 5.197 5.197 0 0 0 2.827-.806c.852-.537 1.586-1.293 2.201-2.268.595-.975 1.051-2.148 1.369-3.521.337-1.373.505-2.895.505-4.566 0-1.51-.137-2.9-.413-4.167l.51-1.361a9.842 9.842 0 0 1 1.026-2.036 7.214 7.214 0 0 1 .623-.783l.022-.02a10.27 10.27 0 0 1 1.773 2.31c1.011 1.73 1.517 3.76 1.517 6.087 0 2.328-.506 4.367-1.517 6.117a10.32 10.32 0 0 1-2.578 3c.44.482.922.885 1.447 1.208.893.537 1.885.806 2.975.806a6.49 6.49 0 0 0 2.32-.418c.755-.278 1.33-.627 1.726-1.044v-7.61c0-.716-.218-1.293-.654-1.73-.436-.439-1.012-.657-1.726-.657h-.089v-.299h8.12c.082-2.067.574-3.887 1.475-5.46a10.44 10.44 0 0 1 4.195-4.06c1.805-.974 3.898-1.461 6.278-1.461 2.38 0 4.462.487 6.247 1.462 1.805.955 3.203 2.308 4.195 4.058.652 1.115 1.094 2.354 1.325 3.717V7.455c0-.716-.218-1.293-.654-1.73-.436-.438-1.012-.657-1.726-.657h-.03v-.299h17.901c1.527.02 2.856.289 3.986.806 1.151.497 2.043 1.194 2.678 2.089.24.327.434.675.586 1.044.243-1.153.836-2.097 1.776-2.834 1.29-1.015 2.986-1.522 5.087-1.522a10.448 10.448 0 0 1 2.202.208c.318.06.684.11 1.101.15.417.04.952.06 1.606.06h9.399v.298h-.089c-.715 0-1.289.219-1.726.656-.436.438-.655 1.015-.655 1.731v11.847c0 2.109.536 3.78 1.607 5.014 1.091 1.213 2.559 1.82 4.403 1.82 1.864 0 3.332-.617 4.403-1.85 1.071-1.254 1.607-2.915 1.607-4.984v-11.4c0-.855-.258-1.531-.773-2.028-.516-.498-1.201-.766-2.053-.806v-.299h9.818l7.26 16.86 7.259-16.86h5.563v.299c-.634 0-1.17.189-1.607.567-.436.378-.634.895-.595 1.551l1.518 17.667c.099.676.416 1.183.952 1.522.555.338 1.101.507 1.636.507v.268h-9.223v-.268c.338 0 .684-.08 1.042-.239.356-.159.644-.388.862-.686.239-.299.328-.647.268-1.045L147.254 8.44l-8.27 19.128-8.33-19.158-1.399 15.697c-.079.795.149 1.442.684 1.94.536.497 1.191.765 1.964.805v.298h-5.95v-.298c.753-.04 1.388-.318 1.904-.835.516-.518.813-1.164.892-1.94l1.488-16.503c-.377-.775-.853-1.382-1.428-1.82a2.683 2.683 0 0 0-.31-.22 2.706 2.706 0 0 0-.435.34c-.516.497-.773 1.173-.773 2.029v11.4c0 1.67-.347 3.123-1.042 4.356-.674 1.233-1.656 2.198-2.945 2.895-1.269.676-2.787 1.014-4.552 1.014-1.745 0-3.262-.338-4.552-1.014-1.289-.677-2.291-1.632-3.004-2.865-.695-1.253-1.042-2.716-1.042-4.387V7.455c0-.716-.218-1.293-.654-1.73-.421-.423-.971-.641-1.649-.656l.283 5.728h-.298c-.277-1.85-.872-3.312-1.784-4.386-.913-1.075-2.013-1.612-3.303-1.612-.912 0-1.646.269-2.201.806-.536.537-.804 1.253-.804 2.148 0 .776.248 1.522.744 2.239.516.696 1.398 1.512 2.648 2.447l1.279.955c1.309.954 2.341 1.84 3.094 2.655.774.796 1.329 1.572 1.667 2.328a5.87 5.87 0 0 1 .505 2.417c0 1.313-.327 2.477-.982 3.492-.654 1.014-1.567 1.81-2.737 2.387-1.15.557-2.509.856-4.076.895-.515 0-.942-.02-1.279-.06-.317-.04-.635-.089-.952-.149a12.03 12.03 0 0 0-1.16-.149c-.456-.04-1.081-.06-1.874-.06l-1.042-7.758h.357c.298 2.447.972 4.337 2.023 5.67 1.071 1.313 2.44 1.97 4.106 1.97 1.229 0 2.231-.349 3.005-1.045.773-.697 1.16-1.602 1.16-2.716a3.59 3.59 0 0 0-.268-1.373c-.159-.437-.436-.905-.833-1.402-.397-.497-.922-1.035-1.577-1.612a35.383 35.383 0 0 0-2.439-1.999l-1.22-.925c-1.487-1.134-2.519-2.149-3.094-3.044a5.527 5.527 0 0 1-.459-.872 5.157 5.157 0 0 1-.862 1.976c-.635.895-1.547 1.602-2.737 2.119-1.17.497-2.558.746-4.165.746h-2.737v7.58c0 .716.218 1.293.654 1.73.436.438 1.012.657 1.726.657h.06v.298H70.913v-.298h.029c.714 0 1.29-.219 1.726-.657.436-.437.654-1.014.654-1.73v-6.13a11.127 11.127 0 0 1-1.325 3.742c-.992 1.731-2.39 3.084-4.195 4.059-1.785.955-3.867 1.432-6.247 1.432s-4.473-.477-6.278-1.432c-1.785-.975-3.183-2.328-4.195-4.059-.987-1.743-1.483-3.773-1.487-6.088a2.156 2.156 0 0 0-.373.3c-.436.437-.654 1.014-.654 1.73v7.61c-.397.397-1.032.746-1.904 1.044-.853.279-1.825.497-2.916.657a21.84 21.84 0 0 1-3.213.238c-2.589 0-4.843-.46-6.764-1.38-1.763.92-3.812 1.38-6.148 1.38Zm36.758-1.283a5.197 5.197 0 0 1-2.826.806 5.197 5.197 0 0 1-2.827-.806c-.853-.537-1.576-1.293-2.172-2.268-.614-.975-1.09-2.148-1.428-3.521-.317-1.373-.476-2.895-.476-4.566 0-1.671.159-3.193.476-4.566.338-1.392.814-2.576 1.428-3.55.596-.976 1.32-1.732 2.172-2.269a5.197 5.197 0 0 1 2.827-.806c1.03 0 1.973.269 2.826.806s1.587 1.293 2.201 2.268c.596.975 1.052 2.159 1.369 3.551.337 1.373.506 2.895.506 4.566 0 1.671-.169 3.193-.506 4.566-.317 1.373-.773 2.546-1.369 3.521-.614.975-1.348 1.73-2.201 2.268Zm16.22-.09a2.15 2.15 0 0 1-1.006.572 2.154 2.154 0 0 1-1.007-.572c-.436-.437-.654-1.014-.654-1.73V7.455c0-.716.218-1.293.654-1.73.28-.28.615-.47 1.007-.572.392.101.728.292 1.006.571.437.438.655 1.015.655 1.731v17.01c0 .716-.218 1.293-.655 1.73Zm6.992-9.698h-1.755V5.157h1.725c.853 0 1.597.249 2.232.746.634.478 1.12 1.144 1.457 2 .357.855.536 1.83.536 2.924 0 1.094-.179 2.07-.535 2.925-.338.855-.824 1.531-1.458 2.029-.615.477-1.349.716-2.202.716Z" clip-rule="evenodd"/><path d="M159.682 2.326a2.07 2.07 0 0 1-2.067 2.073 2.07 2.07 0 0 1-2.068-2.073 2.07 2.07 0 0 1 2.068-2.074 2.07 2.07 0 0 1 2.067 2.074Z"/></g><defs><clipPath id="a"><path fill="#fff" d="M0 0h160v28H0z"/></clipPath></defs></svg>