<svg xmlns="http://www.w3.org/2000/svg" width="106" height="56" fill="none"><g fill="#939393" style="mix-blend-mode:luminosity"><path d="M8.264 13.489c-.654-1.687-.37-3.626.232-5.257.634-1.716 1.737-3.427 3.386-4.33.082 1.809-.462 3.595-1.057 5.206-.535 1.45-1.19 2.993-2.275 4.192a33.395 33.395 0 0 0-.383 2.715 6.89 6.89 0 0 1 1.668-2.518c.935-.899 2.327-1.592 3.633-1.182-.382 1.465-1.254 2.87-2.287 3.856-.813.776-1.887 1.77-3.15 1.809a32.298 32.298 0 0 0 .084 3.937c.179-.949.56-1.842 1.113-2.508.758-.914 1.883-2.03 3.32-1.844-.08 1.483-.662 3.003-1.474 4.145-.645.908-1.497 2.064-2.706 2.363.194 1.274.463 2.527.805 3.753.004-.939.208-1.86.613-2.6.571-1.041 1.46-2.34 2.899-2.442.21 1.455-.075 3.046-.651 4.311-.46 1.011-1.074 2.301-2.193 2.835a31.357 31.357 0 0 0 1.663 3.838c-.224-1.066-.215-2.19.05-3.202.365-1.394 1.271-2.858 2.726-3.283.514 1.539.443 3.257.145 4.821-.246 1.288-.73 2.8-1.812 3.638a31.215 31.215 0 0 0 2.345 3.33c-.459-1.038-.687-2.173-.565-3.213.179-1.515.598-3.135 2.122-3.943.865 1.515 1.066 3.214 1.14 4.892.059 1.356-.134 3.03-1.062 4.133a31.173 31.173 0 0 0 3.3 3.017c-.76-.99-1.292-2.15-1.405-3.298-.159-1.622-.081-3.408 1.337-4.598 1.213 1.286 1.937 3.18 2.291 4.824.314 1.454.642 3.175-.105 4.606a31.654 31.654 0 0 0 4.787 2.607c-1.19-.86-2.163-2.041-2.627-3.26-.608-1.597-.984-3.5.2-5.1 1.587 1.03 2.753 2.79 3.672 4.395.788 1.378 1.604 3.278 1.199 4.918.936.323 1.896.606 2.88.847l-.06.245a33.312 33.312 0 0 1-2.89-.85c-.658 1.975-2.815 2.628-4.56 2.916-2.485.41-5.444-.385-7.566-1.987 1.12-1.606 3.405-1.77 5.128-1.892l.022-.002a18.199 18.199 0 0 1 5.827.546 32.01 32.01 0 0 1-6.136-3.164l-.028.044c-1.037 1.706-3.118 1.773-4.752 1.665-2.217-.146-4.777-1.514-6.258-3.406 1.393-1.24 3.451-.893 5.046-.624l.008.001c1.78.3 3.725.956 5.357 1.964a7.923 7.923 0 0 1-.456-.394 31.437 31.437 0 0 1-4.38-3.834l-.047.047c-1.292 1.319-3.173.974-4.642.544-1.965-.574-4.003-2.307-4.98-4.297 1.514-.86 3.323-.151 4.73.41 1.546.615 3.18 1.6 4.437 2.856a7.433 7.433 0 0 1-.37-.519 31.45 31.45 0 0 1-3.143-4.282l-.046.03c-1.462.957-3.118.264-4.43-.418-1.78-.924-3.21-2.956-3.828-4.953 1.58-.513 3.139.494 4.351 1.292 1.326.872 2.67 2.116 3.591 3.543a6.632 6.632 0 0 1-.189-.43 31.588 31.588 0 0 1-2.247-4.924l-.032.01-.002.002c-1.33.512-2.81-.285-3.774-1.16-1.34-1.214-2.286-3.082-2.508-4.907 1.386-.182 2.691.906 3.584 1.834 1.027 1.068 1.949 2.33 2.516 3.732a6.226 6.226 0 0 1-.107-.463 31.86 31.86 0 0 1-1.164-4.953l-.02.002-.007.002c-1.405.238-2.704-.847-3.48-1.899-1.089-1.476-1.65-3.52-1.51-5.371 1.4.1 2.466 1.45 3.157 2.543.8 1.266 1.463 2.698 1.754 4.196a6.128 6.128 0 0 1-.016-.36 32.463 32.463 0 0 1-.22-5.26h-.004c-1.429-.052-2.484-1.398-3.03-2.592-.78-1.708-.905-3.868-.384-5.688 1.361.388 2.12 1.973 2.568 3.193.517 1.407.877 2.94.88 4.466.074-1.28.224-2.57.452-3.864Zm28.133-3.157v6.11c0 2.687-2.398 3.98-6.033 3.98-3.397 0-5.833-1.28-5.833-4.297v-5.793h3.385v5.793c0 1.077.912 1.749 2.585 1.749 1.6 0 2.548-.697 2.548-1.737v-5.806h3.348Zm11.273 7.301v2.65h-9.354V10.33H41.7v7.302h5.97Zm10.062-4.804V10.33H46.029v2.498h4.134v7.453h3.422V12.83h4.147Z"/><path fill-rule="evenodd" d="M69.735 11.346c.45.469.663 1.115.663 2.015 0 .773-.188 1.433-.5 1.876-.35.482-.888.888-1.55.989l2.962 4.056h-3.723l-2.436-3.511h-3.034v3.511h-3.335v-9.95h7.806c1.549 0 2.56.38 3.147 1.014Zm-2.697 2.852c.087-.152.112-.355.112-.52 0-.19-.025-.393-.112-.52-.175-.33-.525-.418-1.05-.418h-3.859v1.813h3.922c.537 0 .862-.102.987-.355Zm8.777 4.246h5.296l.861 1.838h3.61l-4.946-9.95h-4.034l-5.233 9.95h3.534l.912-1.838Zm4.234-2.23h-3.135l1.237-2.396.375-.913.35.9 1.173 2.408ZM69.38 22.157c-2.096 0-3.198 1.008-3.198 2.489 0 1.671 1.157 2.52 3.198 2.52 2.246 0 3.19-.984 3.19-2.52 0-1.561-1.065-2.49-3.19-2.49Zm0 3.773c-1.193 0-1.539-.498-1.539-1.266 0-.756.376-1.254 1.533-1.254 1.265 0 1.55.56 1.55 1.254 0 .738-.345 1.266-1.544 1.266Z" clip-rule="evenodd"/><path d="M63.076 27.092v-2.858h-3.16v1.039h1.689a.782.782 0 0 1-.152.326c-.175.209-.642.393-1.247.393-.63 0-1.036-.166-1.254-.424-.145-.19-.23-.461-.23-.867 0-.424.085-.713.249-.903.236-.27.635-.387 1.223-.387.527 0 .89.123 1.06.276a.66.66 0 0 1 .212.307h1.568a1.667 1.667 0 0 0-.14-.577c-.375-.774-1.247-1.235-2.73-1.235-1.29 0-2.156.399-2.634 1.001-.315.412-.46.928-.46 1.506 0 .64.169 1.186.447 1.549.473.62 1.314.928 2.326.928.89 0 1.501-.215 1.889-.541l.042.467h1.302Zm-16.493-2.92c1.23.135 1.756.578 1.756 1.42 0 1.02-.98 1.573-2.912 1.573-1.799 0-2.574-.516-2.87-1.192a2.104 2.104 0 0 1-.116-.48h1.744a.608.608 0 0 0 .115.259c.146.178.551.282 1.242.282.89 0 1.102-.129 1.102-.368 0-.259-.218-.314-1.023-.4-.321-.03-.83-.08-1.042-.098-1.538-.142-2.107-.627-2.107-1.457 0-.86 1.005-1.518 2.84-1.518 1.629 0 2.386.492 2.7 1.107a1.7 1.7 0 0 1 .176.54h-1.744a.407.407 0 0 0-.097-.22c-.133-.18-.472-.296-1.078-.296-.853 0-1.078.104-1.078.326 0 .246.285.301 1.236.405.37.031.956.093 1.156.117Z"/><path fill-rule="evenodd" d="M29.196 22.68c.321.257.503.694.503 1.327 0 .516-.127.903-.37 1.173-.326.381-.865.554-1.568.56-.218.006-2.083 0-2.083 0v1.352H24.05v-4.824h3.688c.654 0 1.15.135 1.46.411Zm-1.205 1.702a.7.7 0 0 0 .073-.35c0-.16-.03-.296-.085-.37-.103-.153-.296-.227-.611-.227h-1.702v1.18h1.69c.339 0 .538-.08.635-.233Zm7.667-1.622c.218.227.32.54.32.976 0 .375-.09.695-.242.91-.17.233-.43.43-.75.48l1.435 1.966h-1.805l-1.18-1.702h-1.472v1.702h-1.617v-4.824h3.785c.75 0 1.241.184 1.526.491Zm-1.308 1.382a.527.527 0 0 0 .054-.252.47.47 0 0 0-.054-.252c-.085-.16-.255-.203-.509-.203H31.97v.879h1.901c.26 0 .418-.05.479-.172Z" clip-rule="evenodd"/><path d="M41.95 27.092v-1.199h-3.41v-.627h3.27v-1.173h-3.27v-.62h3.367v-1.205h-4.965v4.824h5.008Zm12.278-3.614v-1.21h-5.673v1.21h2.004v3.614h1.66v-3.614h2.01Zm2.184-1.21v4.824h-1.665v-4.824h1.665Zm9.113 0v4.824H63.86v-4.824h1.665Zm13.471 0v2.962c0 1.302-1.162 1.93-2.924 1.93-1.647 0-2.828-.621-2.828-2.084v-2.808h1.641v2.808c0 .522.442.848 1.254.848.775 0 1.235-.338 1.235-.842v-2.814h1.623Zm6.538 3.324c0-.842-.527-1.285-1.756-1.42-.2-.024-.787-.086-1.157-.117-.95-.104-1.236-.16-1.236-.405 0-.221.225-.326 1.079-.326.605 0 .945.117 1.077.295.067.086.09.154.097.221h1.744a1.713 1.713 0 0 0-.176-.54c-.315-.615-1.07-1.107-2.7-1.107-1.835 0-2.84.658-2.84 1.518 0 .83.57 1.315 2.107 1.457l.099.009.165.015.778.074c.806.086 1.023.141 1.023.4 0 .24-.211.368-1.101.368-.691 0-1.096-.104-1.243-.282a.607.607 0 0 1-.114-.258h-1.744c.018.122.048.32.115.479.296.676 1.071 1.192 2.87 1.192 1.932 0 2.913-.553 2.913-1.573Z"/><path fill-rule="evenodd" d="M43.19 28.939c-1.36 0-2.077.655-2.077 1.618 0 1.086.752 1.637 2.078 1.637 1.46 0 2.074-.639 2.074-1.637 0-1.015-.693-1.618-2.074-1.618Zm0 2.452c-.774 0-.999-.323-.999-.822 0-.492.244-.815.996-.815.822 0 1.007.363 1.007.814 0 .48-.224.823-1.003.823Z" clip-rule="evenodd"/><path d="M35.618 31.172c0-.548-.342-.835-1.141-.923-.13-.016-.511-.056-.752-.076-.617-.068-.803-.104-.803-.263 0-.144.146-.212.701-.212.394 0 .614.076.7.191.044.056.06.1.064.144h1.133a1.106 1.106 0 0 0-.114-.351c-.205-.4-.697-.72-1.755-.72-1.193 0-1.846.428-1.846.987 0 .54.37.855 1.37.947l.676.064c.524.056.665.092.665.26 0 .155-.137.24-.716.24-.448 0-.712-.069-.807-.185a.395.395 0 0 1-.074-.167h-1.134c.012.08.032.207.075.311.193.44.697.775 1.865.775 1.256 0 1.893-.36 1.893-1.022Z"/><path fill-rule="evenodd" d="M27.76 31.26c0 .215-.059.427-.177.567-.18.223-.52.32-.956.32h-2.743V29.01h2.668c.425 0 .697.104.846.26a.714.714 0 0 1 .193.519c0 .203-.047.371-.15.495a.592.592 0 0 1-.373.204.83.83 0 0 1 .547.295c.098.116.145.292.145.476Zm-1.326-1.099a.272.272 0 0 0 .063-.184.231.231 0 0 0-.075-.183c-.055-.052-.157-.072-.307-.072h-1.2v.511h1.228c.133 0 .236-.02.291-.072Zm-.177 1.274c.185 0 .295-.024.358-.084.04-.04.055-.1.055-.175 0-.08-.02-.14-.067-.188-.059-.052-.161-.076-.334-.076h-1.354v.523h1.342Z" clip-rule="evenodd"/><path d="M31.464 31.367v.78h-3.255V29.01h3.227v.783h-2.188v.403h2.125v.763h-2.125v.407h2.216Zm7.983-2.357v.788h-1.306v2.348h-1.079v-2.348H35.76v-.787h3.687Zm9.418 0v.796h-2.098v.443h2v.787h-2v1.11h-1.059v-3.135h3.157Zm5.331.788v-.787h-3.688v.787h1.303v2.348h1.078v-2.348h1.307Zm4.024-.788v3.136h-1.055v-1.138h-1.582v1.138h-1.055v-3.135h1.055v1.142h1.582v-1.142h1.055Zm3.88 3.136v-.779h-2.215v-.407h2.125v-.763h-2.125v-.403h2.188v-.783h-3.227v3.135H62.1Zm6.524-3.136h1.019l-1.129 3.136h-1.157s-.618-1.873-.622-1.925c-.003.052-.626 1.925-.626 1.925h-1.153L63.8 29.011h1.145s.67 1.973.67 2.02c0-.047.617-2.02.617-2.02h1.107s.621 1.973.621 2.02c0-.047.665-2.02.665-2.02Z"/><path fill-rule="evenodd" d="M71.663 28.939c-1.362 0-2.078.655-2.078 1.618 0 1.086.751 1.637 2.078 1.637 1.46 0 2.074-.639 2.074-1.637 0-1.015-.693-1.618-2.074-1.618Zm0 2.452c-.775 0-1-.323-1-.822 0-.492.244-.815.996-.815.823 0 1.007.363 1.007.814 0 .48-.224.823-1.003.823Zm5.97-2.061c.14.148.208.352.208.635 0 .244-.059.452-.158.591a.752.752 0 0 1-.488.312l.933 1.278h-1.172l-.768-1.106h-.956v1.106h-1.05v-3.135h2.459c.488 0 .807.12.992.32Zm-.85.899a.352.352 0 0 0 .035-.164.313.313 0 0 0-.035-.164c-.056-.103-.166-.131-.332-.131h-1.215v.57h1.235c.17 0 .272-.031.312-.111Z" clip-rule="evenodd"/><path d="M81.416 32.146v-.835h-1.881v-2.3h-1.066v3.135h2.947Z"/><path fill-rule="evenodd" d="M85.588 30.52c0 .488-.047.752-.188 1-.213.395-.634.626-1.378.626h-2.188v-3.135h2.164c.74 0 1.178.212 1.394.575.153.244.196.503.196.934Zm-1.767.855c.335 0 .524-.08.638-.255.071-.108.09-.36.09-.58-.003-.2-.027-.41-.09-.507-.122-.187-.306-.255-.63-.255h-.94v1.597h.932Z" clip-rule="evenodd"/><path d="M43.371 47.395h-1.63s-1.064 3.157-1.064 3.234c0-.077-.995-3.234-.995-3.234h-1.77s-.988 3.157-.988 3.234c0-.077-1.07-3.234-1.07-3.234H34.02l1.851 5.016h1.845s.995-2.997 1.001-3.08c.007.083.995 3.08.995 3.08h1.851l1.807-5.016Zm2.232 5.016v-5.016h-1.731v5.016h1.731Zm6.737-5.016v5.016h-1.688l-2.45-2.792v2.792h-1.624v-5.016h1.776l2.373 2.729v-2.729h1.613Zm6.745 5.016v-5.016h-1.612v2.729L55.1 47.395h-1.775v5.016h1.624V49.62l2.45 2.792h1.687Zm6.192-1.246v1.246H60.07v-5.016h5.164v1.252h-3.501v.646h3.4v1.22h-3.4v.652h3.545Z"/><path fill-rule="evenodd" d="M71.932 48.922c0-.453-.107-.78-.333-1.016-.296-.32-.806-.511-1.587-.511h-3.935v5.016h1.681v-1.77h1.53l1.228 1.77h1.876L70.9 50.367a1.21 1.21 0 0 0 .781-.499c.157-.224.251-.556.251-.946Zm-1.637.16a.545.545 0 0 1-.057.262c-.062.128-.226.179-.497.179h-1.977v-.914h1.946c.264 0 .441.045.528.211a.486.486 0 0 1 .057.262Z" clip-rule="evenodd"/><path d="m38.346 38.544-.683-2.133-.683 2.133h-2.21l1.788 1.318-.683 2.133 1.788-1.318 1.788 1.318-.683-2.133 1.788-1.318h-2.21Zm7.198-2.134.696 2.133h2.255l-1.824 1.318.697 2.133-1.825-1.318-1.824 1.318.697-2.133-1.824-1.318h2.255l.697-2.133Zm8.519 2.133-.697-2.133-.697 2.133h-2.255l1.824 1.318-.696 2.133 1.824-1.318 1.824 1.318-.697-2.133 1.825-1.318h-2.255Zm7.125-2.133.696 2.133h2.255l-1.824 1.318.697 2.133-1.824-1.318-1.825 1.318.697-2.133-1.824-1.318h2.255l.697-2.133Zm8.567 2.133-.683-2.133-.684 2.133h-2.21l1.788 1.318-.682 2.133 1.788-1.318 1.787 1.318-.682-2.133 1.787-1.318h-2.21Zm28.667-25.008c.654-1.686.37-3.625-.232-5.256-.634-1.716-1.738-3.428-3.386-4.33-.083 1.808.462 3.595 1.057 5.206.535 1.449 1.19 2.993 2.274 4.19.167.909.294 1.814.384 2.715a6.887 6.887 0 0 0-1.667-2.517c-.936-.899-2.328-1.592-3.634-1.182.383 1.466 1.254 2.87 2.288 3.856.813.776 1.886 1.77 3.15 1.809a32.105 32.105 0 0 1-.086 3.938c-.178-.95-.56-1.843-1.112-2.508-.759-.914-1.883-2.031-3.32-1.844.08 1.483.663 3.003 1.475 4.145.644.907 1.496 2.064 2.705 2.363a31.512 31.512 0 0 1-.806 3.752c-.003-.938-.207-1.86-.612-2.599-.571-1.042-1.461-2.341-2.899-2.443-.211 1.455.075 3.046.651 4.312.46 1.01 1.075 2.3 2.194 2.834a31.348 31.348 0 0 1-1.665 3.84c.225-1.068.216-2.192-.049-3.203-.365-1.394-1.27-2.859-2.726-3.284-.515 1.54-.444 3.257-.144 4.821.246 1.289.728 2.801 1.811 3.638a31.076 31.076 0 0 1-2.346 3.333c.46-1.04.687-2.175.565-3.215-.178-1.515-.597-3.136-2.121-3.943-.866 1.514-1.067 3.213-1.14 4.892-.06 1.356.133 3.03 1.062 4.134a31.297 31.297 0 0 1-3.299 3.015c.76-.99 1.292-2.15 1.404-3.298.16-1.622.082-3.407-1.337-4.598-1.212 1.286-1.937 3.18-2.29 4.824-.315 1.454-.642 3.175.104 4.606a31.642 31.642 0 0 1-4.787 2.608c1.19-.86 2.163-2.041 2.627-3.26.608-1.598.984-3.501-.2-5.101-1.587 1.031-2.753 2.79-3.672 4.396-.788 1.377-1.604 3.278-1.199 4.918-.936.322-1.896.605-2.88.847l.06.245c.986-.243 1.95-.527 2.89-.85.658 1.975 2.815 2.627 4.56 2.915 2.485.41 5.445-.384 7.567-1.986-1.121-1.607-3.406-1.77-5.129-1.892l-.022-.002a18.194 18.194 0 0 0-5.827.546 32.04 32.04 0 0 0 6.137-3.165l.025.042c1.037 1.709 3.12 1.776 4.754 1.668 2.218-.147 4.777-1.515 6.258-3.406-1.394-1.24-3.45-.894-5.046-.625l-.008.002c-1.78.3-3.723.955-5.356 1.963.156-.124.307-.255.455-.393a31.433 31.433 0 0 0 4.38-3.834l.055.056c1.292 1.308 3.168.963 4.634.535 1.966-.575 4.003-2.308 4.98-4.297-1.514-.861-3.323-.152-4.73.41-1.547.615-3.182 1.601-4.44 2.859.13-.166.255-.34.372-.52a31.485 31.485 0 0 0 3.144-4.284l.04.025.01.007c1.46.953 3.115.26 4.427-.42 1.779-.925 3.209-2.956 3.827-4.954-1.579-.513-3.138.494-4.35 1.292-1.328.873-2.672 2.118-3.594 3.546a6.42 6.42 0 0 0 .19-.432 31.587 31.587 0 0 0 2.248-4.925l.032.011.005.002c1.329.51 2.808-.286 3.772-1.16 1.34-1.215 2.285-3.082 2.507-4.907-1.385-.182-2.691.906-3.584 1.833-1.027 1.07-1.95 2.332-2.517 3.735a5.92 5.92 0 0 0 .108-.466c.516-1.605.907-3.26 1.164-4.952l.04.005c1.399.23 2.693-.851 3.467-1.9 1.089-1.476 1.65-3.52 1.509-5.372-1.399.1-2.465 1.45-3.155 2.544-.8 1.266-1.465 2.699-1.755 4.198.01-.12.014-.24.017-.361.213-1.723.289-3.481.219-5.26 1.429-.051 2.488-1.398 3.034-2.593.779-1.708.904-3.868.385-5.688-1.362.388-2.122 1.973-2.57 3.193-.516 1.406-.876 2.94-.88 4.466a33.552 33.552 0 0 0-.45-3.865Z"/></g></svg>