<svg xmlns="http://www.w3.org/2000/svg" width="184" height="28" fill="none"><g fill="#878787" clip-path="url(#a)" style="mix-blend-mode:luminosity"><path d="M23.867 25.607A14.918 14.918 0 0 0 28.308 15c0-3.978-1.597-7.794-4.441-10.607A15.25 15.25 0 0 0 13.144 0 15.25 15.25 0 0 0 2.42 4.393l5.005 4.95c.79.781 2.064.742 3.069.26a6.12 6.12 0 0 1 6.939 1.154A5.946 5.946 0 0 1 18.6 17.62c-.488.994-.527 2.256.263 3.037l5.004 4.95ZM21.23 28h-7.423a4.066 4.066 0 0 1-2.86-1.172l-9.763-9.656A3.978 3.978 0 0 1 0 14.343V7l21.23 21ZM7.582 28H3.033C1.358 28 0 26.657 0 25v-4.5L7.582 28ZM172.777 4.85c5.973 0 10.835 4.81 10.835 10.719v7.58h-5.286v-7.58c0-2.17-1.321-4.052-3.171-4.941V23.15h-5.286v-7.581c0-2.17-1.321-4.052-3.171-4.941V23.15h-5.286V4.85h2.907c2.008 0 3.911.576 5.55 1.543V4.85h2.908Zm-13.465 10.719c0 4.182-3.462 7.58-7.665 7.58-4.228 0-7.664-3.398-7.664-7.58V4.85h5.286v10.72a2.356 2.356 0 0 0 2.378 2.352c1.296 0 2.38-1.045 2.38-2.352V4.85h5.285v10.72Zm-16.944 1.699c0 3.215-2.643 5.83-5.893 5.83h-7.85v-5.229h7.85a.612.612 0 0 0 .608-.601c0-.314-.291-.575-.608-.575h-2.141c-3.303 0-5.973-2.64-5.973-5.908 0-3.268 2.67-5.935 5.973-5.935h7.77v5.229h-7.77c-.396 0-.687.313-.687.706 0 .366.291.68.687.68h2.141c3.25 0 5.893 2.613 5.893 5.803ZM120.621 4.85c3.7 0 6.739 3.007 6.739 6.667 0 3.686-3.039 6.666-6.739 6.666h-1.982v4.967h-5.286V4.85h7.268Zm0 8.104a1.44 1.44 0 0 0 1.453-1.437c0-.785-.66-1.438-1.453-1.438h-1.982v2.875h1.982Zm-9.648 10.196h-5.286V4.85h5.286v18.3Zm-6.91-9.15c0 5.045-4.176 9.15-9.25 9.15-5.102 0-9.25-4.105-9.25-9.15 0-5.02 4.148-9.15 9.25-9.15 5.074 0 9.25 4.13 9.25 9.15Zm-5.286 0c0-2.144-1.797-3.921-3.965-3.921-2.193 0-3.964 1.777-3.964 3.921 0 2.17 1.77 3.921 3.965 3.921 2.166 0 3.964-1.751 3.964-3.921Zm-14.751-1.176V23.15h-6.608c-5.1 0-9.25-4.105-9.25-9.15 0-5.02 4.15-9.15 9.25-9.15h6.608v5.229h-6.608c-2.193 0-3.963 1.777-3.963 3.921 0 2.17 1.77 3.921 3.963 3.921h1.322v-5.097h5.286ZM67.313 14c0 5.045-4.176 9.15-9.25 9.15-5.101 0-9.25-4.105-9.25-9.15 0-5.02 4.149-9.15 9.25-9.15 5.074 0 9.25 4.13 9.25 9.15Zm-5.286 0c0-2.144-1.797-3.921-3.964-3.921-2.194 0-3.965 1.777-3.965 3.921 0 2.17 1.771 3.921 3.965 3.921 2.167 0 3.964-1.751 3.964-3.921Zm-13.761 3.921v5.229h-6.608c-2.643 0-4.757-2.092-4.757-4.706V4.85h5.286v13.071h6.079Z"/></g><defs><clipPath id="a"><path fill="#fff" d="M0 0h184v28H0z"/></clipPath></defs></svg>