<svg xmlns="http://www.w3.org/2000/svg" width="40" height="40" fill="none"><path fill="#EE634E" d="M37.313 2.992a.394.394 0 0 0-.274-.289c-4.578-1.117-15.148 2.867-20.875 8.594a24.794 24.794 0 0 0-2.781 3.29c-1.766-.157-3.531-.024-5.04.632-4.25 1.867-5.484 6.75-5.835 8.844a.751.751 0 0 0 .617.867c.07.008.14.015.211.008l6.82-.75c.008.515.04 1.03.094 1.539.031.351.195.687.445.937l2.641 2.633c.25.25.586.414.938.445.507.055 1.015.086 1.53.094l-.75 6.813a.75.75 0 0 0 .876.82c2.093-.336 6.984-1.57 8.843-5.82.657-1.508.79-3.266.641-5.024a24.955 24.955 0 0 0 3.297-2.781c5.742-5.711 9.703-16.047 8.602-20.852Zm-9.04 14.032a3.742 3.742 0 0 1-5.296 0 3.744 3.744 0 0 1 0-5.305 3.744 3.744 0 0 1 5.304 0 3.751 3.751 0 0 1-.008 5.305Z"/><path fill="#EE634E" d="M13.156 31.203c-.43.43-1.117.594-1.945.742-1.86.313-3.5-1.289-3.164-3.164.125-.71.508-1.71.742-1.945a.344.344 0 0 0 .008-.484.335.335 0 0 0-.29-.102 4.68 4.68 0 0 0-2.741 1.336C3.922 29.43 3.75 36.25 3.75 36.25s6.828-.172 8.664-2.016a4.657 4.657 0 0 0 1.336-2.75c.031-.32-.367-.515-.594-.28Z"/></svg>