<svg xmlns="http://www.w3.org/2000/svg" width="140" height="36" fill="none"><g fill="#878787" clip-path="url(#a)" style="mix-blend-mode:luminosity"><path d="M12.924 27.037v.11c0 .279.01.553.03.822h5.613a4.316 4.316 0 0 1-.074-.932h-5.57Zm-6.849 0v.932H.749v-.932h5.326Zm6.902-.949h5.65c.073-.271.174-.53.304-.775.031-.054.063-.106.096-.157h-5.913c-.06.304-.106.614-.137.933Zm-6.902-.932v.933H.749v-.933h5.326Zm6.352-.947c-.223-.212-.533-.375-.93-.488-.435-.112-1.056-.169-1.863-.169h-3.56v.657H.75v-.933h11.96v.933h-.282Zm.927 0h6.597a3.64 3.64 0 0 1 .239-.15c.532-.306 1.146-.458 1.84-.458.694 0 1.299.152 1.815.458.083.047.162.097.238.15h6.583a8.33 8.33 0 0 0-.235-.632 9.046 9.046 0 0 0-.128-.3h-16.59c-.046.098-.09.198-.133.3a8.435 8.435 0 0 0-.226.631Zm.869-1.881h15.58a7.988 7.988 0 0 0-.667-.933h-14.24c-.245.294-.47.605-.673.933Zm1.609-1.881h12.372a8.261 8.261 0 0 0-1.32-.932h-9.726a8.66 8.66 0 0 0-1.326.932Zm-3.123-.932v.932H.652a3.956 3.956 0 0 0-.097-.441 2.383 2.383 0 0 0-.183-.491H12.71Zm24.004 0-.068.032a8.71 8.71 0 0 0-1.459.9h11.908l.01-.031c.113-.354.29-.627.532-.82v-.081H36.713Zm15.391 0c-.473.27-.915.58-1.326.932H63.15a8.269 8.269 0 0 0-1.32-.932h-9.726Zm37.328 0h7.563c.285.152.548.324.789.515.165.133.318.271.46.417h-8.812v-.932Zm-15.174 0h6.088a2.88 2.88 0 0 0-.2.467 3.326 3.326 0 0 0-.115.465h-5.513a4.494 4.494 0 0 0-.085-.441 2.787 2.787 0 0 0-.175-.491Zm-7.225 0h6.013a2.779 2.779 0 0 0-.174.49 4.71 4.71 0 0 0-.085.442h-5.495a4.435 4.435 0 0 0-.085-.441 2.78 2.78 0 0 0-.174-.491Zm-2.952 1.88H49.842a8.32 8.32 0 0 0-.674.933h15.58a7.988 7.988 0 0 0-.667-.933Zm3.297.933v-.464c0-.164-.003-.32-.008-.469h5.341a14.54 14.54 0 0 0-.007.469v.464h-5.326Zm-2.133.948h-16.59c-.046.1-.09.2-.133.3a8.483 8.483 0 0 0-.226.633h6.597a3.21 3.21 0 0 1 .239-.15c.532-.306 1.146-.458 1.84-.458.694 0 1.299.152 1.815.458.083.047.162.097.238.15h6.582a8.202 8.202 0 0 0-.234-.632 8.84 8.84 0 0 0-.128-.3Zm2.133.933v-.933h5.326v.933h-5.326Zm-1.52.947H59.93a3.508 3.508 0 0 1 .412.932h5.656a9.36 9.36 0 0 0-.141-.932Zm1.52.932v-.932h5.326v.933h-5.326Zm-1.326.949h-5.569a4.387 4.387 0 0 1-.078.932h5.617a10.626 10.626 0 0 0 .03-.932Zm1.326.933v-.933h5.326v.932h-5.326Zm-1.476.948H60.06l-.035.062a3.171 3.171 0 0 1-.695.87h6.353a8.79 8.79 0 0 0 .219-.932Zm1.476.932v-.932h5.326v.932h-5.326Zm-2.037.949H48.56c.14.324.296.635.468.932h15.859c.169-.297.32-.608.455-.932Zm2.037.932V30.8h5.326v.932h-5.326Zm-3.123.949h-14.59a8.265 8.265 0 0 0 .85.932H63.41a8.038 8.038 0 0 0 .845-.932Zm3.069.932c.03-.273.048-.583.054-.932h5.33c.005.349.023.66.054.932h-5.438Zm-5.131.948h-10.45a9.1 9.1 0 0 0 1.551.79c1.114.433 2.34.65 3.68.65 1.324 0 2.542-.217 3.656-.65a8.92 8.92 0 0 0 1.563-.79Zm-16.446-.948v-.932H33.933c.286.337.6.647.945.932h10.87Zm-9.428.948h9.433v1.223a3.507 3.507 0 0 0-1.066-.168c-.242 0-.589.032-1.04.096-.437.064-.945.097-1.526.097-2.082 0-3.874-.346-5.375-1.038a9.133 9.133 0 0 1-.426-.21Zm-7.851-.948a8.264 8.264 0 0 0 .845-.932h-14.59a8.265 8.265 0 0 0 .85.932h12.895Zm-11.67.948h10.45a8.922 8.922 0 0 1-1.564.79c-1.113.433-2.332.65-3.655.65-1.34 0-2.567-.217-3.68-.65a9.097 9.097 0 0 1-1.55-.79Zm-10.655-.948a8.438 8.438 0 0 1-.064-.932H.749c-.007.349-.024.66-.055.932h5.449Zm-5.65.948H6.39c.131.308.294.539.487.693v.217H.074v-.217c.173-.16.313-.391.42-.693Zm.256-2.829h5.326V30.8H.749v.932Zm0-1.881h5.326v-.932H.749v.932Zm12.321-.932c.056.319.126.63.212.932h6.362a3.37 3.37 0 0 1-.748-.932H13.07Zm12.044 0-.035.062a3.17 3.17 0 0 1-.695.87h6.353a8.79 8.79 0 0 0 .22-.932h-5.843Zm7.109 0c.056.321.126.632.212.932h6.467a3.052 3.052 0 0 1-.811-.932h-5.868Zm5.51-.948h-5.63a11.765 11.765 0 0 1-.035-.92v-.013h5.568c.001.33.033.641.096.932Zm9.788 0h-6.114c.172-.208.304-.499.398-.872l.015-.061h5.272l.015.061c.094.373.232.664.414.871Zm.495.948c.055.319.126.63.211.932h6.363a3.372 3.372 0 0 1-.749-.932h-5.825Zm5.501-.948h-5.614a11.046 11.046 0 0 1-.03-.933h5.57a4.389 4.389 0 0 0 .074.932Zm.053-1.882c.072-.271.173-.53.303-.775.031-.054.063-.106.096-.157h-5.913c-.06.304-.106.614-.137.933h5.65Zm-6.61 0a12.997 12.997 0 0 1-.025-.848v-.084h-4.963v.084c0 .31-.009.593-.026.849h5.014Zm-9.225 0c.072-.333.186-.643.34-.932H32.25c-.06.303-.106.614-.136.933h5.62Zm-6.682 0a9.36 9.36 0 0 0-.141-.932h-5.926c.031.051.062.103.09.157.139.245.245.504.321.776h5.656Zm-5.516.949a4.387 4.387 0 0 1-.078.932h5.617a10.626 10.626 0 0 0 .03-.932h-5.569Zm6.961-2.83h6.386c.194-.156.408-.294.642-.414.614-.29 1.332-.434 2.155-.434.098 0 .194 0 .29.002v.846h4.964v-.932H32.873a7.6 7.6 0 0 0-.375.933Zm.919-1.879h13.518v-.247c0-.25.006-.48.018-.686H34.15c-.266.291-.51.602-.732.933Zm12.334 8.471H32.774c.139.325.299.635.48.932H45.75V30.8Zm-15.811.932c.17-.297.321-.608.456-.932H13.614c.14.324.295.635.467.932h15.86Zm37.18 2.829h5.842c.107.302.247.533.42.693v.217h-6.683v-.217c.173-.16.313-.391.42-.693Zm7.197 0c-.113.302-.268.533-.466.693v.217h7.772c1.452 0 2.695-.233 3.728-.7.153-.065.301-.135.444-.21H74.317Zm16.759 0c1.119.735 2.62 1.103 4.503 1.103.436 0 .83-.024 1.186-.073.355-.048.622-.072.799-.072.274 0 .573.056.896.169V34.56h-7.384Zm7.387-.948h-8.451a4.005 4.005 0 0 1-.573-.932h9.024v.932Zm1.698.948c-.107.302-.247.533-.42.693v.217h6.658v-.217c-.173-.16-.313-.391-.42-.693h-5.818Zm5.631-.948h-5.431c.031-.273.048-.583.055-.932h5.329c.005.349.02.66.047.932Zm2.871.948c-.101.302-.243.533-.428.693v.217h6.682v-.217c-.185-.16-.334-.391-.443-.693h-5.811Zm5.61-.948h-5.414c.031-.273.049-.583.054-.932h5.307c.005.349.023.66.053.932Zm1.417.948c-.125.304-.29.535-.497.693v.217h5.835v-.17a1.652 1.652 0 0 1-.226-.74h-5.112Zm5.375-.948h-5.151a9.48 9.48 0 0 0 .067-.932h5.915l-.339.329c-.206.205-.37.406-.492.603Zm7.569.948a1.79 1.79 0 0 1-.223.741v.169h5.762v-.217c-.195-.158-.357-.389-.488-.693h-5.051Zm4.814-.948h-5.043a2.96 2.96 0 0 0-.528-.651l-.281-.281h5.784c.011.35.033.661.068.932Zm-.075-1.881V30.8h-7.654l.931.932h6.723Zm-10.501 0 .96-.932h-7.844v.932h6.884Zm-8.653 0V30.8h-5.302v.932h5.302Zm-8.477 0V30.8h-5.326v.932h5.326Zm-7.282 0V30.8h-.626a2.096 2.096 0 0 1-.366.208c-.087.037-.188.07-.303.097l-.04.009-.069.014a1.53 1.53 0 0 1-.484.073c-.371 0-.661-.089-.872-.266a1.1 1.1 0 0 1-.134-.135h-6.5c.001.326.029.636.083.932h9.312Zm-10.149 0c.103-.295.18-.605.23-.932h-6.153c-.323.155-.732.232-1.227.232h-1.235v-.232H74.6v.932h13.71ZM74.6 32.68c-.007.349-.028.66-.062.932h12.578a4.942 4.942 0 0 0 .745-.932H74.599Zm0-2.83h5.326v-.932H74.6v.932Zm0-1.88h5.326v-.933H74.6v.932Zm0-1.882h12.876a6.363 6.363 0 0 0-.854-.932H74.6v.933Zm0-1.879h10.717a12.698 12.698 0 0 0-2.024-.933H74.6v.933Zm.003-1.881h5.55l-.223-.064v-.4a12 12 0 0 1 .008-.469h-5.342c.005.15.007.305.007.469v.464Zm14.829-.933v.933h9.912a4.479 4.479 0 0 0-.39-.933h-9.522Zm11.775 0a5.885 5.885 0 0 0-.404.933h13.031a5.885 5.885 0 0 0-.404-.933h-12.223Zm14.777 0c.006.15.007.305.007.469v.464h5.181v-.464c0-.164.003-.32.007-.469h-5.195Zm5.272-.948h-5.35a5.007 5.007 0 0 0-.085-.441 2.8 2.8 0 0 0-.175-.491h5.869a2.722 2.722 0 0 0-.175.491 4.38 4.38 0 0 0-.084.44Zm6.953.948c.006.15.007.305.007.469v.464h5.158v-.464c0-.164.002-.32.007-.469h-5.172Zm5.248-.948h-5.325a4.665 4.665 0 0 0-.085-.441 2.575 2.575 0 0 0-.179-.491h5.853a2.509 2.509 0 0 0-.179.491c-.033.132-.061.28-.085.44Zm-21.67-.932h-8.929a5.5 5.5 0 0 0-1.007.932h10.945a5.385 5.385 0 0 0-1.009-.932Zm21.587 3.76h-5.157v.933h5.157v-.933Zm0 1.881h-5.157v.933h5.157v-.933Zm-.002 1.881h-5.158v.099l-.1-.099h-12.126v.932h17.384v-.932Zm.003 1.881h-17.383v.932h17.383v-.932Zm-19.156.932v-.932h-5.302v.932h5.302Zm-8.477 0v-.932h-5.326v.932h5.326Zm-10.244 0c.03-.058.066-.115.107-.17a7.8 7.8 0 0 1 .775-.7l.084-.062H89.45c-.13.303-.226.614-.29.932h6.339Zm-6.879 0v-.074a7.5 7.5 0 0 0-.048-.858h-5.384a2.072 2.072 0 0 1 .008.932h5.424Zm-6.028-1.88h5.799a5.735 5.735 0 0 0-.343-.933H80.46l.147.037c.902.236 1.563.535 1.984.895Zm8.255-.933c-.33.29-.615.601-.856.932h7.67a6.785 6.785 0 0 0 .835-.932h-7.65Zm9.57 0v.932h5.326v-.932h-5.326Zm5.326-.949h-5.326v-.932h5.334a4.122 4.122 0 0 0-.008.253v.68Zm3.175.949v.932h5.302v-.932h-5.302Zm5.303-.949h-5.302v-.679c0-.087-.003-.171-.008-.253h5.31v.933Zm1.772 0h5.181v-.932h-5.181v.933Zm0-1.879h5.181v-.933h-5.181v.933Zm-1.917-.933h-13.519a7.993 7.993 0 0 0-.117.933h5.557c.04-.072.084-.137.133-.198.275-.322.669-.483 1.186-.483.517 0 .912.161 1.187.483.051.06.098.127.14.198h5.549a8.217 8.217 0 0 0-.116-.933Zm-14.532.931a6.144 6.144 0 0 0-.018-.932h-6.824a1.3 1.3 0 0 1 .291.18c.264.204.408.455.433.753h6.118Zm-6.426.949a.86.86 0 0 1-.029.036c-.19.23-.524.53-1 .896h6.974a5.078 5.078 0 0 0 .335-.932h-6.28Zm-2.236-1.88h-1.45v.831h.194l.364-.362a2.12 2.12 0 0 1 .411-.24c.146-.086.307-.162.481-.229Zm32.24 1.88-1.067.933h5.091l-.952-.933h-3.072Zm2.105-.948h-1.019l.475-.415h.121l.423.415ZM.745 21.395h11.968v.933H.753v-.464c0-.164-.003-.32-.008-.469ZM137.5 0c-.302 0-.579.05-.829.152a1.932 1.932 0 0 0-1.099 1.06 2.107 2.107 0 0 0-.153.808c0 .293.052.562.153.808.102.246.248.46.435.644.188.18.41.32.664.422.25.097.527.146.829.146a2.3 2.3 0 0 0 .829-.146c.254-.102.475-.242.664-.422.187-.183.332-.398.434-.644.102-.246.153-.515.153-.808 0-.293-.051-.562-.153-.808a1.865 1.865 0 0 0-.434-.638 1.941 1.941 0 0 0-.664-.422A2.22 2.22 0 0 0 137.5 0Zm-.776 3.29a1.271 1.271 0 0 1-.517-.509 1.536 1.536 0 0 1-.182-.761c0-.293.06-.546.182-.761a1.27 1.27 0 0 1 .517-.51c.219-.12.478-.181.776-.181.293 0 .552.06.775.181.22.121.392.291.517.51.122.215.183.468.183.761 0 .289-.061.543-.183.761a1.315 1.315 0 0 1-.517.51 1.602 1.602 0 0 1-.775.181 1.58 1.58 0 0 1-.776-.181Zm.159-1.61h.041a.284.284 0 0 1 .118-.076.406.406 0 0 1 .129-.017c.07 0 .135.017.194.052a.376.376 0 0 1 .129.141.432.432 0 0 1 .047.205.45.45 0 0 1-.1.304.357.357 0 0 1-.277.117.314.314 0 0 1-.246-.11h-.041v.796a.534.534 0 0 0 .147.035c.058.007.121.011.187.011.243 0 .459-.046.647-.14.184-.098.329-.232.435-.404.106-.176.159-.377.159-.603 0-.223-.049-.42-.148-.592a1.004 1.004 0 0 0-.411-.398 1.213 1.213 0 0 0-.599-.146 1.41 1.41 0 0 0-.141.006 1.068 1.068 0 0 1-.106.006.721.721 0 0 1-.164-.018v.831Z"/><path fill-rule="evenodd" d="M13.577 14.072c-.436-1.077-.654-2.267-.654-3.57s.218-2.493.654-3.57a8.41 8.41 0 0 1 1.888-2.799A8.803 8.803 0 0 1 18.346 2.3c1.114-.434 2.34-.652 3.68-.652 1.324 0 2.543.218 3.656.652a8.478 8.478 0 0 1 2.881 1.833 8.116 8.116 0 0 1 1.864 2.799c.452 1.077.678 2.267.678 3.57s-.226 2.493-.678 3.57a8.117 8.117 0 0 1-1.864 2.799 8.476 8.476 0 0 1-2.88 1.833c-1.114.434-2.333.651-3.657.651-1.34 0-2.566-.217-3.68-.651a8.802 8.802 0 0 1-2.88-1.833 8.412 8.412 0 0 1-1.889-2.799Zm11.96-3.57c0-.692-.153-1.303-.46-1.834a3.187 3.187 0 0 0-1.235-1.254c-.516-.306-1.121-.458-1.816-.458-.694 0-1.307.152-1.84.458a3.361 3.361 0 0 0-1.259 1.254c-.29.531-.435 1.142-.435 1.834 0 .675.145 1.287.435 1.833.307.531.727.95 1.26 1.255.532.305 1.145.458 1.84.458.694 0 1.299-.153 1.815-.458a3.188 3.188 0 0 0 1.235-1.255c.307-.546.46-1.158.46-1.833Z" clip-rule="evenodd"/><path d="M9.636 14.096h-3.56V5.218c0-.82.073-1.447.219-1.881.145-.435.339-.748.58-.941v-.217H.074v.217c.226.209.395.538.508.989.113.434.17 1.045.17 1.833v10.566c0 .789-.065 1.408-.194 1.858-.113.434-.299.756-.557.965v.217h10.604c.388 0 .767.016 1.138.048.371.032.694.089.968.17v-5.694h-.193c-.226.257-.565.45-1.017.579-.436.113-1.057.169-1.864.169ZM41.8 10.549c.113.434.17 1.053.17 1.857v1.879c-.096.002-.193.003-.29.003-.824 0-1.542-.145-2.155-.434a3.478 3.478 0 0 1-1.405-1.279c-.322-.563-.484-1.214-.484-1.954 0-.788.178-1.464.533-2.026.355-.563.88-.99 1.574-1.279.71-.306 1.573-.458 2.59-.458.42 0 .79.024 1.114.072.339.048.645.12.92.217.21.064.411.153.605.265.21.097.395.218.557.362h.218v-5.91c-.355.113-.71.169-1.066.169-.242 0-.589-.032-1.04-.097a10.574 10.574 0 0 0-1.526-.096c-2.082 0-3.873.346-5.375 1.037-1.5.692-2.655 1.689-3.462 2.992-.807 1.302-1.21 2.878-1.21 4.728 0 1.72.403 3.224 1.21 4.51.807 1.288 1.93 2.285 3.366 2.992 1.452.708 3.139 1.062 5.06 1.062 1.049 0 2.082-.073 3.098-.217a14.894 14.894 0 0 0 2.833-.676v-.217c-.242-.193-.42-.466-.533-.82-.112-.354-.169-.909-.169-1.665v-3.16c0-.804.056-1.423.17-1.857.112-.45.29-.78.532-.99v-.217h-6.343v.218c.226.209.395.538.508.989Z"/><path fill-rule="evenodd" d="M48.526 14.072c-.435-1.077-.653-2.267-.653-3.57s.218-2.493.654-3.57a8.412 8.412 0 0 1 1.888-2.799 8.803 8.803 0 0 1 2.88-1.833c1.114-.434 2.341-.652 3.68-.652 1.324 0 2.543.218 3.657.652a8.479 8.479 0 0 1 2.88 1.833 8.117 8.117 0 0 1 1.865 2.799c.452 1.077.678 2.267.678 3.57s-.226 2.493-.678 3.57a8.119 8.119 0 0 1-1.864 2.799 8.477 8.477 0 0 1-2.881 1.833c-1.114.434-2.333.651-3.656.651-1.34 0-2.566-.217-3.68-.651a8.802 8.802 0 0 1-2.881-1.833 8.414 8.414 0 0 1-1.889-2.799Zm11.96-3.57c0-.692-.153-1.303-.46-1.834a3.185 3.185 0 0 0-1.234-1.254c-.517-.306-1.122-.458-1.816-.458s-1.307.152-1.84.458a3.361 3.361 0 0 0-1.26 1.254c-.29.531-.435 1.142-.435 1.834 0 .675.145 1.287.436 1.833.307.531.726.95 1.259 1.255.532.305 1.146.458 1.84.458.694 0 1.3-.153 1.816-.458a3.187 3.187 0 0 0 1.234-1.255c.307-.546.46-1.158.46-1.833Z" clip-rule="evenodd"/><path d="M67.208 3.385c.113.434.17 1.045.17 1.833v10.566c0 .789-.057 1.408-.17 1.858-.113.434-.282.756-.508.965v.217h6.681v-.217c-.225-.21-.395-.53-.508-.965-.113-.45-.17-1.07-.17-1.857V5.217c0-.788.057-1.399.17-1.833.113-.45.282-.78.508-.99V2.18H66.7v.217c.225.209.395.538.508.989Z"/><path fill-rule="evenodd" d="M80.146 17.666c.145.434.339.748.581.941v.217h-6.803v-.217c.226-.21.395-.53.508-.965.113-.45.17-1.07.17-1.857V5.217c0-.788-.065-1.399-.194-1.833-.113-.45-.298-.78-.557-.99V2.18h7.772c1.453 0 2.695.233 3.728.7 1.05.45 1.856 1.1 2.421 1.953.565.837.848 1.85.848 3.04 0 1.142-.243 2.155-.727 3.04-.484.884-1.226 1.656-2.227 2.315-1 .644-2.284 1.182-3.85 1.617l-1.888.54v.4c0 .82.073 1.448.218 1.882Zm.46-7.092-.678.171V6.617h1.235c.678 0 1.194.145 1.55.435.354.273.532.667.532 1.182 0 .579-.21 1.053-.63 1.423-.42.37-1.089.675-2.009.917Z" clip-rule="evenodd"/><path d="M98.267 7.173h.193V1.962a2.733 2.733 0 0 1-.896.169 6.51 6.51 0 0 1-.798-.073 8.863 8.863 0 0 0-1.187-.072c-2.066 0-3.671.442-4.818 1.327-1.13.868-1.694 2.05-1.694 3.546 0 .772.177 1.504.533 2.195.355.676.871 1.279 1.549 1.81l.654.482c.63.466 1.056.836 1.282 1.11.227.273.34.57.34.892 0 .338-.145.62-.436.845-.275.225-.653.337-1.138.337a3.29 3.29 0 0 1-.799-.096 3.49 3.49 0 0 1-.654-.29 2.127 2.127 0 0 1-.411-.24l-.363-.363h-.194v5.09c.323.113.799.201 1.428.266.646.08 1.275.12 1.889.12 2.18 0 3.857-.466 5.036-1.399 1.178-.948 1.767-2.227 1.767-3.835 0-.611-.097-1.19-.29-1.737a5.59 5.59 0 0 0-.848-1.544 7.34 7.34 0 0 0-1.38-1.351l-.653-.483a7.721 7.721 0 0 1-.776-.7 1.02 1.02 0 0 1-.217-.626c0-.242.105-.45.314-.628.21-.177.5-.265.872-.265.178 0 .34.024.484.072a2.1 2.1 0 0 1 .412.12c.145.065.282.146.412.242.145.08.274.177.387.29Zm2.151-1.955c0-.788-.056-1.399-.17-1.833-.113-.45-.282-.78-.507-.99V2.18h6.657v.217c-.225.209-.395.538-.508.989-.097.434-.146 1.045-.146 1.833v7.02c0 .611.13 1.078.388 1.4.275.321.67.482 1.186.482.517 0 .912-.16 1.187-.483.274-.321.411-.788.411-1.399v-7.02c0-.788-.056-1.399-.169-1.833-.097-.45-.267-.78-.509-.99V2.18h6.682v.217c-.242.209-.42.538-.533.989-.112.434-.168 1.045-.168 1.833v7.527c0 1.4-.275 2.59-.824 3.57-.532.981-1.315 1.737-2.349 2.268-1.017.515-2.259.772-3.728.772-1.453 0-2.695-.258-3.729-.772a5.6 5.6 0 0 1-2.348-2.268c-.548-.98-.823-2.17-.823-3.57V5.218Zm15.38-1.809c.129.466.193 1.15.193 2.05v10.326c0 .788-.056 1.407-.169 1.857-.112.434-.282.756-.508.965v.217h6.537v-.217c-.226-.21-.396-.53-.509-.965-.113-.45-.17-1.07-.17-1.857v-4.998l3.511 3.067h.121l3.414-3.342v5.272c0 .789-.057 1.408-.17 1.858-.112.434-.29.756-.532.965v.217h6.561v-.217c-.242-.21-.419-.53-.533-.965-.113-.45-.169-1.07-.169-1.857V5.458c0-.9.064-1.584.193-2.05.146-.466.347-.804.605-1.013v-.217h-5.761v.168c.209.386.274.78.193 1.183-.081.386-.323.771-.726 1.157l-3.087 3.092-3.232-3.14c-.403-.402-.645-.788-.726-1.158a1.572 1.572 0 0 1 .194-1.134V2.18h-5.835v.217c.274.209.476.547.605 1.013Z"/></g><defs><clipPath id="a"><path fill="#fff" d="M0 0h140v36H0z"/></clipPath></defs></svg>