<svg xmlns="http://www.w3.org/2000/svg" width="40" height="40" fill="none"><path fill="#EE634E" d="M38.75 8.75v2.5H1.25v-2.5a6.25 6.25 0 0 1 5-6.125V3.75C6.25 4.438 6.813 5 7.5 5c.688 0 1.25-.563 1.25-1.25V2.5h3.75v1.25c0 .688.563 1.25 1.25 1.25.688 0 1.25-.563 1.25-1.25V2.5h3.75v1.25c0 .688.563 1.25 1.25 1.25.688 0 1.25-.563 1.25-1.25V2.5H25v1.25c0 .688.563 1.25 1.25 1.25.688 0 1.25-.563 1.25-1.25V2.5h3.75v1.25c0 .688.563 1.25 1.25 1.25.688 0 1.25-.563 1.25-1.25V2.625c2.85.575 5 3.1 5 6.125ZM20 1.25c-.688 0-1.25.563-1.25 1.25h2.5c0-.688-.563-1.25-1.25-1.25Zm-12.5 0c-.688 0-1.25.563-1.25 1.25v.125A5.89 5.89 0 0 1 7.5 2.5h1.25c0-.688-.563-1.25-1.25-1.25Zm6.25 0c-.688 0-1.25.563-1.25 1.25H15c0-.688-.563-1.25-1.25-1.25Zm12.5 0c-.688 0-1.25.563-1.25 1.25h2.5c0-.688-.563-1.25-1.25-1.25Zm6.25 0c-.688 0-1.25.563-1.25 1.25h1.25c.425 0 .85.038 1.25.125V2.5c0-.688-.563-1.25-1.25-1.25ZM38.75 30A8.744 8.744 0 0 1 30 38.75 8.744 8.744 0 0 1 21.25 30 8.744 8.744 0 0 1 30 21.25 8.744 8.744 0 0 1 38.75 30Zm-5 0c0-.688-.563-1.25-1.25-1.25h-1.25v-2.5c0-.688-.563-1.25-1.25-1.25-.688 0-1.25.563-1.25 1.25V30c0 .688.563 1.25 1.25 1.25h2.5c.688 0 1.25-.563 1.25-1.25Zm5-16.25v9.2a11.2 11.2 0 0 0-8.75-4.2c-6.2 0-11.25 5.05-11.25 11.25a11.2 11.2 0 0 0 4.2 8.75H7.5c-3.45 0-6.25-2.8-6.25-6.25V13.75h37.5ZM10 32.5c0-.688-.563-1.25-1.25-1.25-.688 0-1.25.563-1.25 1.25 0 .688.563 1.25 1.25 1.25.688 0 1.25-.563 1.25-1.25Zm0-6.25c0-.688-.563-1.25-1.25-1.25-.688 0-1.25.563-1.25 1.25 0 .688.563 1.25 1.25 1.25.688 0 1.25-.563 1.25-1.25ZM10 20c0-.688-.563-1.25-1.25-1.25-.688 0-1.25.563-1.25 1.25 0 .688.563 1.25 1.25 1.25.688 0 1.25-.563 1.25-1.25Zm7.5 12.5c0-.688-.563-1.25-1.25-1.25-.688 0-1.25.563-1.25 1.25 0 .688.563 1.25 1.25 1.25.688 0 1.25-.563 1.25-1.25Zm0-6.25c0-.688-.563-1.25-1.25-1.25-.688 0-1.25.563-1.25 1.25 0 .688.563 1.25 1.25 1.25.688 0 1.25-.563 1.25-1.25Zm0-6.25c0-.688-.563-1.25-1.25-1.25-.688 0-1.25.563-1.25 1.25 0 .688.563 1.25 1.25 1.25.688 0 1.25-.563 1.25-1.25Z"/></svg>