<svg xmlns="http://www.w3.org/2000/svg" width="1440" height="862" fill="none"><path fill="#2F3044" d="M1440 53.715V51.8h-43.42V2h-1.36v49.8h-54.45V2h-1.35v49.8h-54.45V2h-1.35v49.8h-54.45V2h-1.35v49.8h-54.45V2h-1.35v49.8h-54.45V2h-1.35v49.8h-54.45V2h-1.35v49.8h-54.45V2h-1.35v49.8h-54.455V2h-1.35v49.8h-54.451V2h-1.351v49.8h-54.451V2h-1.35v49.8h-54.451V2h-1.351v49.8h-54.45V2h-1.351v49.8h-54.451V2h-1.351v49.8h-54.45V2h-1.351v49.8h-54.451V2h-1.35v49.8h-54.451V2h-1.351v49.8h-54.451V2h-1.35v49.8h-54.451V2H390.8v49.8h-54.451V2h-1.35v49.8h-54.451V2h-1.351v49.8h-54.45V2h-1.351v49.8h-54.449V2h-1.351v49.8h-54.421V2h-1.35v49.8h-54.45V2h-1.35v49.8H0v1.915h56.025v57.461H0v1.915h56.025v57.46H0v1.915h56.025v57.461H0v1.915h56.025v57.461H0v1.915h56.025v57.461H0v1.915h56.025v57.461H0v1.915h56.025v57.461H0v1.915h56.025v57.46H0v1.915h56.025v57.461H0v1.915h56.025v57.461H0v1.915h56.025v57.461H0v1.915h56.025v57.461H0v1.915h56.025v57.461H0v1.915h56.025V862h1.35v-36.392h54.451V862h1.351v-36.392h54.451V862h1.35v-36.392h54.45V862h1.35v-36.392h54.451V862h1.351v-36.392h54.45V862h1.351v-36.392h54.451V862h1.351v-36.392h54.45V862h1.351v-36.392h54.451V862h1.35v-36.392h54.451V862h1.351v-36.392h54.451V862h1.35v-36.392h54.451V862h1.351v-36.392h54.451V862h1.35v-36.392h54.451V862h1.351v-36.392h54.45V862h1.351v-36.392h54.451V862h1.351v-36.392h54.45V862h1.351v-36.392h54.453V862h1.35v-36.392h54.45V862h1.35v-36.392h54.45V862h1.35v-36.392h54.45V862h1.35v-36.392h54.45V862h1.35v-36.392h54.45V862h1.35v-36.392h54.45V862h1.36v-36.392h54.45V862h1.35v-36.392H1440v-1.915h-43.42v-57.461H1440v-1.915h-43.42v-57.461H1440v-1.915h-43.42V647.48H1440v-1.915h-43.42v-57.461H1440v-1.915h-43.42v-57.46H1440v-1.915h-43.42v-57.461H1440v-1.915h-43.42v-57.461H1440v-1.915h-43.42v-57.461H1440v-1.915h-43.42v-57.461H1440v-1.915h-43.42v-57.461H1440v-1.915h-43.42v-57.46H1440v-1.915h-43.42v-57.467H1440v-1.915h-43.42V53.715H1440Zm-100.58 0v57.461h-54.45V53.715h54.45ZM447.975 409.974h54.451v57.461h-54.451v-57.461Zm-1.35 57.461h-54.451v-57.461h54.451v57.461Zm57.15-57.461h54.451v57.461h-54.451v-57.461Zm55.8 0h54.451v57.461h-54.451v-57.461Zm55.8 0h54.451v57.461h-54.451v-57.461Zm55.8 0h54.451v57.461h-54.451v-57.461Zm55.8 0h54.451v57.461h-54.451v-57.461Zm55.8 0h54.451v57.461h-54.451v-57.461Zm55.8 0h54.451v57.461h-54.451v-57.461Zm55.8 0h54.451v57.461h-54.451v-57.461Zm55.8 0h54.455v57.461h-54.455v-57.461Zm55.805 0h54.45v57.461h-54.45v-57.461Zm0-1.916v-57.461h54.45v57.461h-54.45Zm-1.36 0h-54.446v-57.461h54.446v57.461Zm-55.795 0h-54.451v-57.461h54.451v57.461Zm-55.8 0h-54.451v-57.461h54.451v57.461Zm-55.8 0h-54.451v-57.461h54.451v57.461Zm-55.8 0h-54.451v-57.461h54.451v57.461Zm-55.8 0h-54.451v-57.461h54.451v57.461Zm-55.8 0h-54.451v-57.461h54.451v57.461Zm-55.8 0h-54.451v-57.461h54.451v57.461Zm-55.8 0h-54.451v-57.461h54.451v57.461Zm-55.8 0h-54.451v-57.461h54.451v57.461Zm-55.8 0h-54.451v-57.461h54.451v57.461Zm-55.8 0h-54.451v-57.461h54.451v57.461Zm0 1.916v57.461h-54.451v-57.461h54.451Zm0 59.376v57.461h-54.451V469.35h54.451Zm1.35 0h54.451v57.461h-54.451V469.35Zm55.8 0h54.451v57.461h-54.451V469.35Zm55.8 0h54.451v57.461h-54.451V469.35Zm55.8 0h54.451v57.461h-54.451V469.35Zm55.8 0h54.451v57.461h-54.451V469.35Zm55.8 0h54.451v57.461h-54.451V469.35Zm55.8 0h54.451v57.461h-54.451V469.35Zm55.8 0h54.451v57.461h-54.451V469.35Zm55.8 0h54.451v57.461h-54.451V469.35Zm55.8 0h54.451v57.461h-54.451V469.35Zm55.8 0h54.455v57.461h-54.455V469.35Zm55.805 0h54.45v57.461h-54.45V469.35Zm55.8 0h54.45v57.461h-54.45V469.35Zm0-1.915v-57.461h54.45v57.461h-54.45Zm0-59.377v-57.461h54.45v57.461h-54.45Zm0-59.376v-57.461h54.45v57.461h-54.45Zm-1.36 0h-54.45v-57.461h54.45v57.461Zm-55.8 0h-54.446v-57.461h54.446v57.461Zm-55.795 0h-54.451v-57.461h54.451v57.461Zm-55.8 0h-54.451v-57.461h54.451v57.461Zm-55.8 0h-54.451v-57.461h54.451v57.461Zm-55.8 0h-54.451v-57.461h54.451v57.461Zm-55.8 0h-54.451v-57.461h54.451v57.461Zm-55.8 0h-54.451v-57.461h54.451v57.461Zm-55.8 0h-54.451v-57.461h54.451v57.461Zm-55.8 0h-54.451v-57.461h54.451v57.461Zm-55.8 0h-54.451v-57.461h54.451v57.461Zm-55.8 0h-54.451v-57.461h54.451v57.461Zm-55.8 0h-54.451v-57.461h54.451v57.461Zm-55.8 0h-54.451v-57.461h54.451v57.461Zm0 1.915v57.461h-54.451v-57.461h54.451Zm0 59.377v57.461h-54.451v-57.461h54.451Zm0 59.376v57.461h-54.451V469.35h54.451Zm0 59.376v57.461h-54.451v-57.461h54.451Zm1.35 0h54.451v57.461h-54.451v-57.461Zm55.8 0h54.451v57.461h-54.451v-57.461Zm55.8 0h54.451v57.461h-54.451v-57.461Zm55.8 0h54.451v57.461h-54.451v-57.461Zm55.8 0h54.451v57.461h-54.451v-57.461Zm55.8 0h54.451v57.461h-54.451v-57.461Zm55.8 0h54.451v57.461h-54.451v-57.461Zm55.8 0h54.451v57.461h-54.451v-57.461Zm55.8 0h54.451v57.461h-54.451v-57.461Zm55.8 0h54.451v57.461h-54.451v-57.461Zm55.8 0h54.451v57.461h-54.451v-57.461Zm55.8 0h54.455v57.461h-54.455v-57.461Zm55.805 0h54.45v57.461h-54.45v-57.461Zm55.8 0h54.45v57.461h-54.45v-57.461Zm55.8 0h54.45v57.461h-54.45v-57.461Zm0-1.915V469.35h54.45v57.461h-54.45Zm0-59.376v-57.461h54.45v57.461h-54.45Zm0-59.377v-57.461h54.45v57.461h-54.45Zm0-59.376v-57.461h54.45v57.461h-54.45Zm0-59.377v-57.461h54.45v57.461h-54.45Zm-1.36 0h-54.45v-57.461h54.45v57.461Zm-55.8 0h-54.45v-57.461h54.45v57.461Zm-55.8 0h-54.446v-57.461h54.446v57.461Zm-55.795 0h-54.451v-57.461h54.451v57.461Zm-55.8 0h-54.451v-57.461h54.451v57.461Zm-55.8 0h-54.451v-57.461h54.451v57.461Zm-55.8 0h-54.451v-57.461h54.451v57.461Zm-55.8 0h-54.451v-57.461h54.451v57.461Zm-55.8 0h-54.451v-57.461h54.451v57.461Zm-55.8 0h-54.451v-57.461h54.451v57.461Zm-55.8 0h-54.451v-57.461h54.451v57.461Zm-55.8 0h-54.451v-57.461h54.451v57.461Zm-55.8 0h-54.451v-57.461h54.451v57.461Zm-55.8 0h-54.451v-57.461h54.451v57.461Zm-55.8 0h-54.451v-57.461h54.451v57.461Zm-55.8 0h-54.451v-57.461h54.451v57.461Zm0 1.916v57.461h-54.451v-57.461h54.451Zm0 59.376v57.461h-54.451v-57.461h54.451Zm0 59.377v57.461h-54.451v-57.461h54.451Zm0 59.376v57.461h-54.451V469.35h54.451Zm0 59.376v57.461h-54.451v-57.461h54.451Zm0 59.377v57.461h-54.451v-57.461h54.451Zm1.35 0h54.451v57.461h-54.451v-57.461Zm55.8 0h54.451v57.461h-54.451v-57.461Zm55.8 0h54.451v57.461h-54.451v-57.461Zm55.8 0h54.451v57.461h-54.451v-57.461Zm55.8 0h54.451v57.461h-54.451v-57.461Zm55.8 0h54.451v57.461h-54.451v-57.461Zm55.8 0h54.451v57.461h-54.451v-57.461Zm55.8 0h54.451v57.461h-54.451v-57.461Zm55.8 0h54.451v57.461h-54.451v-57.461Zm55.8 0h54.451v57.461h-54.451v-57.461Zm55.8 0h54.451v57.461h-54.451v-57.461Zm55.8 0h54.451v57.461h-54.451v-57.461Zm55.8 0h54.455v57.461h-54.455v-57.461Zm55.805 0h54.45v57.461h-54.45v-57.461Zm55.8 0h54.45v57.461h-54.45v-57.461Zm55.8 0h54.45v57.461h-54.45v-57.461Zm55.8 0h54.45v57.461h-54.45v-57.461Zm0-1.916v-57.461h54.45v57.461h-54.45Zm0-59.376V469.35h54.45v57.461h-54.45Zm0-59.376v-57.461h54.45v57.461h-54.45Zm0-59.377v-57.461h54.45v57.461h-54.45Zm0-59.376v-57.461h54.45v57.461h-54.45Zm0-59.377v-57.461h54.45v57.461h-54.45Zm0-59.376v-57.461h54.45v57.461h-54.45Zm-1.36 0h-54.45v-57.461h54.45v57.461Zm-55.8 0h-54.45v-57.461h54.45v57.461Zm-55.8 0h-54.45v-57.461h54.45v57.461Zm-55.8 0h-54.446v-57.461h54.446v57.461Zm-55.795 0h-54.451v-57.461h54.451v57.461Zm-55.8 0h-54.451v-57.461h54.451v57.461Zm-55.8 0h-54.451v-57.461h54.451v57.461Zm-55.8 0h-54.451v-57.461h54.451v57.461Zm-55.8 0h-54.451v-57.461h54.451v57.461Zm-55.8 0h-54.451v-57.461h54.451v57.461Zm-55.8 0h-54.451v-57.461h54.451v57.461Zm-55.8 0h-54.451v-57.461h54.451v57.461Zm-55.8 0h-54.451v-57.461h54.451v57.461Zm-55.8 0h-54.451v-57.461h54.451v57.461Zm-55.8 0h-54.451v-57.461h54.451v57.461Zm-55.8 0h-54.451v-57.461h54.451v57.461Zm-55.8 0h-54.451v-57.461h54.451v57.461Zm-55.8 0h-54.45v-57.461h54.45v57.461Zm0 1.915v57.461h-54.45v-57.461h54.45Zm0 59.377v57.461h-54.45v-57.461h54.45Zm0 59.376v57.461h-54.45v-57.461h54.45Zm0 59.377v57.461h-54.45v-57.461h54.45Zm0 59.376v57.461h-54.45V469.35h54.45Zm0 59.376v57.461h-54.45v-57.461h54.45Zm0 59.377v57.461h-54.45v-57.461h54.45Zm0 59.376v57.461h-54.45v-57.461h54.45Zm1.35 0h54.451v57.461h-54.451v-57.461Zm55.8 0h54.451v57.461h-54.451v-57.461Zm55.8 0h54.451v57.461h-54.451v-57.461Zm55.8 0h54.451v57.461h-54.451v-57.461Zm55.8 0h54.451v57.461h-54.451v-57.461Zm55.8 0h54.451v57.461h-54.451v-57.461Zm55.8 0h54.451v57.461h-54.451v-57.461Zm55.8 0h54.451v57.461h-54.451v-57.461Zm55.8 0h54.451v57.461h-54.451v-57.461Zm55.8 0h54.451v57.461h-54.451v-57.461Zm55.8 0h54.451v57.461h-54.451v-57.461Zm55.8 0h54.451v57.461h-54.451v-57.461Zm55.8 0h54.451v57.461h-54.451v-57.461Zm55.8 0h54.455v57.461h-54.455v-57.461Zm55.805 0h54.45v57.461h-54.45v-57.461Zm55.8 0h54.45v57.461h-54.45v-57.461Zm55.8 0h54.45v57.461h-54.45v-57.461Zm55.8 0h54.45v57.461h-54.45v-57.461Zm55.8 0h54.45v57.461h-54.45v-57.461Zm0-1.915v-57.461h54.45v57.461h-54.45Zm0-59.377v-57.461h54.45v57.461h-54.45Zm0-59.376V469.35h54.45v57.461h-54.45Zm0-59.376v-57.461h54.45v57.461h-54.45Zm0-59.377v-57.461h54.45v57.461h-54.45Zm0-59.376v-57.461h54.45v57.461h-54.45Zm0-59.377v-57.461h54.45v57.461h-54.45Zm0-59.376v-57.461h54.45v57.461h-54.45Zm0-59.376v-57.461h54.45v57.461h-54.45Zm-1.36 0h-54.45v-57.461h54.45v57.461Zm-55.8 0h-54.45v-57.461h54.45v57.461Zm-55.8 0h-54.45v-57.461h54.45v57.461Zm-55.8 0h-54.45v-57.461h54.45v57.461Zm-55.8 0h-54.446v-57.461h54.446v57.461Zm-55.795 0h-54.451v-57.461h54.451v57.461Zm-55.8 0h-54.451v-57.461h54.451v57.461Zm-55.8 0h-54.451v-57.461h54.451v57.461Zm-55.8 0h-54.451v-57.461h54.451v57.461Zm-55.8 0h-54.451v-57.461h54.451v57.461Zm-55.8 0h-54.451v-57.461h54.451v57.461Zm-55.8 0h-54.451v-57.461h54.451v57.461Zm-55.8 0h-54.451v-57.461h54.451v57.461Zm-55.8 0h-54.451v-57.461h54.451v57.461Zm-55.8 0h-54.451v-57.461h54.451v57.461Zm-55.8 0h-54.451v-57.461h54.451v57.461Zm-55.8 0h-54.451v-57.461h54.451v57.461Zm-55.8 0h-54.451v-57.461h54.451v57.461Zm-55.8 0h-54.45v-57.461h54.45v57.461Zm-55.8 0h-54.45v-57.461h54.451l-.001 57.461Zm0 1.915v57.461h-54.45v-57.461h54.45Zm0 59.376v57.461h-54.45v-57.461h54.45Zm0 59.377v57.461h-54.45v-57.461h54.45Zm0 59.376v57.461h-54.45v-57.461h54.45Zm0 59.377v57.461h-54.45v-57.461h54.45Zm0 59.376v57.461h-54.45V469.35h54.45Zm0 59.376v57.461h-54.45v-57.461h54.45Zm0 59.377v57.461h-54.45v-57.461h54.45Zm0 59.376v57.461h-54.45v-57.461h54.45Zm0 59.376v57.461h-54.45v-57.461h54.45Zm1.35 0h54.45v57.461h-54.45v-57.461Zm55.8 0h54.451v57.461h-54.451v-57.461Zm55.8 0h54.451v57.461h-54.451v-57.461Zm55.8 0h54.451v57.461h-54.451v-57.461Zm55.8 0h54.451v57.461h-54.451v-57.461Zm55.8 0h54.451v57.461h-54.451v-57.461Zm55.8 0h54.451v57.461h-54.451v-57.461Zm55.8 0h54.451v57.461h-54.451v-57.461Zm55.8 0h54.451v57.461h-54.451v-57.461Zm55.8 0h54.451v57.461h-54.451v-57.461Zm55.8 0h54.451v57.461h-54.451v-57.461Zm55.8 0h54.451v57.461h-54.451v-57.461Zm55.8 0h54.451v57.461h-54.451v-57.461Zm55.8 0h54.451v57.461h-54.451v-57.461Zm55.8 0h54.455v57.461h-54.455v-57.461Zm55.805 0h54.45v57.461h-54.45v-57.461Zm55.8 0h54.45v57.461h-54.45v-57.461Zm55.8 0h54.45v57.461h-54.45v-57.461Zm55.8 0h54.45v57.461h-54.45v-57.461Zm55.8 0h54.45v57.461h-54.45v-57.461Zm55.8 0h54.45v57.461h-54.45v-57.461Zm0-1.915v-57.461h54.45v57.461h-54.45Zm0-59.376v-57.461h54.45v57.461h-54.45Zm0-59.377v-57.461h54.45v57.461h-54.45Zm0-59.376V469.35h54.45v57.461h-54.45Zm0-59.376v-57.461h54.45v57.461h-54.45Zm0-59.377v-57.461h54.45v57.461h-54.45Zm0-59.376v-57.461h54.45v57.461h-54.45Zm0-59.377v-57.461h54.45v57.461h-54.45Zm0-59.376v-57.461h54.45v57.461h-54.45Zm0-59.376v-57.461h54.45v57.461h-54.45Zm-1.36-116.838v57.461h-54.45V53.715h54.45Zm-55.8 0v57.461h-54.45V53.715h54.45Zm-55.8 0v57.461h-54.45V53.715h54.45Zm-55.8 0v57.461h-54.45V53.715h54.45Zm-55.8 0v57.461h-54.45V53.715h54.45Zm-55.8 0v57.461h-54.446V53.715h54.446Zm-55.795 0v57.461h-54.451V53.715h54.451Zm-55.8 0v57.461h-54.451V53.715h54.451Zm-55.8 0v57.461h-54.451V53.715h54.451Zm-55.8 0v57.461h-54.451V53.715h54.451Zm-55.8 0v57.461h-54.451V53.715h54.451Zm-55.8 0v57.461h-54.451V53.715h54.451Zm-55.8 0v57.461h-54.451V53.715h54.451Zm-55.8 0v57.461h-54.451V53.715h54.451Zm-55.8 0v57.461h-54.451V53.715h54.451Zm-55.8 0v57.461h-54.451V53.715h54.451Zm-55.8 0v57.461h-54.451V53.715h54.451Zm-55.8 0v57.461h-54.451V53.715h54.451Zm-55.8 0v57.461h-54.451V53.715h54.451Zm-55.8 0v57.461h-54.45V53.715h54.45Zm-55.8 0v57.461h-54.45V53.715h54.45Zm-110.25 0h54.451v57.461h-54.45V53.715Zm0 59.377h54.451v57.461h-54.45v-57.461Zm0 59.376h54.451v57.461h-54.45v-57.461Zm0 59.376h54.451v57.461h-54.45v-57.461Zm0 59.377h54.451v57.461h-54.45v-57.461Zm0 59.376h54.451v57.461h-54.45v-57.461Zm0 59.377h54.451v57.461h-54.45v-57.461Zm0 59.376h54.451v57.461h-54.45V469.35Zm0 59.376h54.451v57.461h-54.45v-57.461Zm0 59.377h54.451v57.461h-54.45v-57.461Zm0 59.376h54.451v57.461h-54.45v-57.461Zm0 59.376h54.451v57.461h-54.45v-57.461Zm0 116.838v-57.461h54.451v57.461h-54.45Zm55.8 0v-57.461h54.451v57.461h-54.451Zm55.8 0v-57.461h54.45v57.461h-54.45Zm55.8 0v-57.461h54.451v57.461h-54.451Zm55.8 0v-57.461h54.451v57.461h-54.451Zm55.8 0v-57.461h54.451v57.461h-54.451Zm55.8 0v-57.461h54.451v57.461h-54.451Zm55.8 0v-57.461h54.451v57.461h-54.451Zm55.8 0v-57.461h54.451v57.461h-54.451Zm55.8 0v-57.461h54.451v57.461h-54.451Zm55.8 0v-57.461h54.451v57.461h-54.451Zm55.8 0v-57.461h54.451v57.461h-54.451Zm55.8 0v-57.461h54.451v57.461h-54.451Zm55.8 0v-57.461h54.451v57.461h-54.451Zm55.8 0v-57.461h54.451v57.461h-54.451Zm55.8 0v-57.461h54.451v57.461h-54.451Zm55.8 0v-57.461h54.455v57.461h-54.455Zm55.805 0v-57.461h54.45v57.461h-54.45Zm55.8 0v-57.461h54.45v57.461h-54.45Zm55.8 0v-57.461h54.45v57.461h-54.45Zm55.8 0v-57.461h54.45v57.461h-54.45Zm55.8 0v-57.461h54.45v57.461h-54.45Zm55.8 0v-57.461h54.45v57.461h-54.45Zm110.24 0h-54.45v-57.461h54.45v57.461Zm0-59.376h-54.45v-57.461h54.45v57.461Zm0-59.377h-54.45v-57.461h54.45v57.461Zm0-59.376h-54.45v-57.461h54.45v57.461Zm0-59.377h-54.45v-57.461h54.45v57.461Zm0-59.376h-54.45V469.35h54.45v57.461Zm0-59.376h-54.45v-57.461h54.45v57.461Zm0-59.377h-54.45v-57.461h54.45v57.461Zm0-59.376h-54.45v-57.461h54.45v57.461Zm0-59.377h-54.45v-57.461h54.45v57.461Zm0-59.376h-54.45v-57.461h54.45v57.461Zm0-59.376h-54.45v-57.461h54.45v57.461Zm0-59.377h-54.45V53.715h54.45v57.461Z"/><path stroke="#2F3044" stroke-width="2" d="M0 1h1440"/></svg>