<svg xmlns="http://www.w3.org/2000/svg" width="156" height="42" fill="none"><g fill="#939393" clip-path="url(#a)" style="mix-blend-mode:luminosity"><path fill-rule="evenodd" d="m.325 4.624 2.727-1.197a39.546 39.546 0 0 1 31.794 0l2.727 1.197v18.488c0 10.366-8.338 18.77-18.624 18.77S.325 33.478.325 23.112V4.624Zm5.9 3.91v8.09a12.53 12.53 0 0 0 5.916-3.347 12.645 12.645 0 0 0 2.72-4.099c.393-.958.667-1.96.818-2.98a33.7 33.7 0 0 0-9.453 2.336Zm.002 14.747a12.534 12.534 0 0 1 5.915 3.346 12.645 12.645 0 0 1 2.718 4.1c.628 1.527.952 3.163.955 4.816-5.46-1.394-9.512-6.345-9.588-12.262Zm12.538 2.199a18.553 18.553 0 0 0-5.484-5.527 18.461 18.461 0 0 0 5.484-5.527 18.557 18.557 0 0 0 5.484 5.527 18.471 18.471 0 0 0-5.484 5.527Zm2.95 10.151c5.67-1.267 9.918-6.347 9.957-12.434a12.535 12.535 0 0 0-6.285 3.43 12.646 12.646 0 0 0-2.717 4.1 12.724 12.724 0 0 0-.955 4.836v.068Zm7.74-19.614c.719.3 1.46.531 2.218.692V8.534a33.697 33.697 0 0 0-9.827-2.371c.15 1.033.425 2.046.824 3.015a12.647 12.647 0 0 0 2.718 4.1 12.532 12.532 0 0 0 4.068 2.74Zm52.428 22.176c-.885 0-1.682-.214-2.39-.642a4.777 4.777 0 0 1-1.682-1.784c-.4-.761-.602-1.618-.602-2.57 0-.963.201-1.819.602-2.568a4.684 4.684 0 0 1 1.664-1.767c.708-.44 1.51-.66 2.408-.66.814 0 1.54.179 2.177.536.522.292.953.668 1.292 1.127v-5.391h1.328v13.505h-1.328v-1.558a3.598 3.598 0 0 1-1.274 1.22c-.65.368-1.38.552-2.195.552Zm.07-1.338c.638 0 1.21-.16 1.718-.482a3.4 3.4 0 0 0 1.221-1.302c.307-.559.46-1.183.46-1.873s-.153-1.309-.46-1.856a3.366 3.366 0 0 0-1.221-1.32 3.143 3.143 0 0 0-1.717-.482c-.626 0-1.192.161-1.7.482a3.446 3.446 0 0 0-1.204 1.303c-.283.547-.424 1.171-.424 1.873 0 .69.141 1.314.424 1.873.296.547.69.981 1.187 1.302.507.322 1.08.482 1.717.482Zm8.835.695a4.62 4.62 0 0 0 2.408.643c.649 0 1.239-.107 1.77-.321a4.744 4.744 0 0 0 1.399-.874c.389-.37.678-.767.867-1.196l-1.133-.606c-.295.5-.679.916-1.15 1.249-.473.333-1.057.5-1.753.5a3.322 3.322 0 0 1-1.7-.465 3.364 3.364 0 0 1-1.239-1.302 3.469 3.469 0 0 1-.368-1.57h7.467a5.465 5.465 0 0 0 .07-.856c0-.571-.1-1.124-.3-1.66a4.569 4.569 0 0 0-.868-1.463 3.994 3.994 0 0 0-1.38-1.034c-.531-.262-1.14-.393-1.824-.393-.861 0-1.64.214-2.337.642a4.597 4.597 0 0 0-1.628 1.767c-.401.737-.602 1.588-.602 2.55 0 .964.207 1.827.62 2.588a4.74 4.74 0 0 0 1.681 1.802Zm-.878-5.191c.044-.422.154-.802.33-1.142a3.2 3.2 0 0 1 1.168-1.302 3.106 3.106 0 0 1 1.646-.464c.59 0 1.121.155 1.593.464.472.297.832.707 1.08 1.23.187.368.279.773.276 1.214H89.91Z" clip-rule="evenodd"/><path d="M99.233 28.416h1.328v1.165c.242-.376.555-.681.938-.915a3.265 3.265 0 0 1 1.7-.464c.731 0 1.392.208 1.982.625.457.321.811.718 1.062 1.189a2.908 2.908 0 0 1 1.045-1.225 3.442 3.442 0 0 1 1.947-.589c.637 0 1.222.155 1.753.464.542.31.973.737 1.292 1.285.33.535.496 1.141.496 1.82v6.208h-1.328v-5.691c0-.583-.106-1.077-.319-1.481a2.186 2.186 0 0 0-.832-.928 2.22 2.22 0 0 0-1.221-.339 2.27 2.27 0 0 0-1.222.34 2.226 2.226 0 0 0-.867.945c-.213.404-.319.892-.319 1.463v5.691h-1.327v-5.691c0-.583-.107-1.077-.319-1.481a2.192 2.192 0 0 0-.832-.928 2.22 2.22 0 0 0-1.221-.339c-.461 0-.874.113-1.24.34-.354.213-.637.528-.849.945-.213.404-.319.892-.319 1.463v5.691h-1.328v-9.563Zm15.569 13.488c-.189 0-.384-.018-.585-.054a2.482 2.482 0 0 1-.566-.142v-1.25c.118.013.265.03.442.054.189.036.378.054.567.054.578 0 1.021-.125 1.328-.375.306-.238.607-.702.902-1.392l.343-.813-3.795-9.57h1.434l3.107 7.894 3.089-7.894h1.469L118.2 39.192a6.49 6.49 0 0 1-.725 1.32 3.25 3.25 0 0 1-1.08 1c-.437.26-.968.392-1.593.392Z"/><path fill-rule="evenodd" d="M69.134 37.854c.472.226 1.009.34 1.611.34.555 0 1.062-.084 1.522-.25a4.24 4.24 0 0 0 1.222-.697c.237-.199.431-.411.584-.637v1.369H75.4v-6.566c0-.63-.154-1.183-.46-1.659a3.017 3.017 0 0 0-1.257-1.142c-.532-.273-1.145-.41-1.842-.41-.53 0-1.044.101-1.54.303-.496.19-.938.452-1.328.785a3.181 3.181 0 0 0-.832 1.107l1.205.66c.212-.464.536-.839.973-1.124.437-.298.944-.446 1.522-.446.661 0 1.198.178 1.612.535.412.357.619.82.619 1.392v.493l-3.434.577c-.697.119-1.27.321-1.717.606-.449.286-.78.637-.992 1.053a2.874 2.874 0 0 0-.318 1.356c0 .523.135.987.407 1.392.271.404.643.725 1.115.963Zm4.939-4.734v.72c0 .583-.136 1.112-.407 1.588-.272.475-.65.856-1.133 1.141-.484.274-1.05.41-1.7.41-.53 0-.968-.148-1.31-.445a1.41 1.41 0 0 1-.495-1.088c0-.44.147-.821.442-1.142.307-.322.803-.541 1.487-.66l3.116-.524Z" clip-rule="evenodd"/><path d="M62.428 38.193c-.933 0-1.753-.22-2.461-.66a4.641 4.641 0 0 1-1.664-1.784c-.401-.761-.602-1.618-.602-2.57 0-.95.2-1.801.602-2.55a4.509 4.509 0 0 1 1.664-1.767c.708-.44 1.528-.66 2.46-.66.59 0 1.145.107 1.665.321.519.214.98.506 1.38.875.402.356.703.773.903 1.248l-1.204.625a2.971 2.971 0 0 0-1.08-1.25 2.94 2.94 0 0 0-1.663-.48c-.626 0-1.192.16-1.7.48-.495.31-.89.744-1.186 1.303-.283.547-.425 1.172-.425 1.873 0 .69.142 1.315.425 1.874.295.547.69.981 1.186 1.302a3.113 3.113 0 0 0 1.7.482c.625 0 1.174-.16 1.646-.482.484-.32.85-.75 1.097-1.284l1.204.66c-.2.464-.501.88-.903 1.249-.4.369-.861.66-1.38.874a4.323 4.323 0 0 1-1.664.321Z"/><path fill-rule="evenodd" d="M51.066 24.688 46.25 37.98h1.487l1.15-3.248h5.895l1.133 3.248h1.487l-4.815-13.292h-1.522Zm3.221 8.706H49.35l2.477-7.03 2.462 7.03Z" clip-rule="evenodd"/><path d="M47.449 3.159v15.864h9.93v-2.875h-6.655V3.158h-3.275Zm50.014 15.864h3.169V7.396h-3.17v11.627Zm0-15.864v3.194h3.169V3.159h-3.17Z"/><path fill-rule="evenodd" d="M102.318 23.282V7.397h2.958v1.206c.342-.406.764-.73 1.267-.972.662-.327 1.416-.49 2.261-.49 1.099 0 2.092.27 2.979.81a5.93 5.93 0 0 1 2.113 2.193c.521.908.782 1.93.782 3.066 0 1.122-.261 2.144-.782 3.066a5.77 5.77 0 0 1-2.092 2.194c-.887.54-1.894.809-3.021.809a5.615 5.615 0 0 1-2.197-.426 4.013 4.013 0 0 1-1.099-.723v5.152h-3.169Zm6.085-6.878c.591 0 1.112-.135 1.563-.404a2.81 2.81 0 0 0 1.057-1.129c.253-.483.38-1.036.38-1.661s-.127-1.171-.38-1.64a2.808 2.808 0 0 0-1.057-1.128c-.451-.284-.972-.426-1.563-.426-.564 0-1.071.135-1.522.405a2.86 2.86 0 0 0-1.035 1.128c-.239.483-.359 1.036-.359 1.661s.12 1.178.359 1.661c.254.483.599.859 1.035 1.129.451.27.958.404 1.522.404Z" clip-rule="evenodd"/><path d="M117.106 18.384c.944.596 2.05.895 3.318.895.901 0 1.683-.15 2.345-.448.662-.312 1.176-.738 1.542-1.277.381-.54.571-1.172.571-1.896 0-.837-.254-1.54-.761-2.108-.507-.582-1.239-1.015-2.197-1.299l-1.839-.553a4.517 4.517 0 0 1-.718-.277 1.086 1.086 0 0 1-.401-.34.752.752 0 0 1-.127-.427.83.83 0 0 1 .338-.703c.239-.17.563-.255.972-.255.563 0 1.063.149 1.5.447.451.284.761.667.93 1.15l2.345-1.107a4.25 4.25 0 0 0-1.817-2.236c-.845-.54-1.831-.81-2.958-.81-.859 0-1.62.157-2.282.47-.662.297-1.176.716-1.543 1.255-.366.54-.549 1.172-.549 1.896 0 .823.254 1.54.761 2.15.507.597 1.232 1.03 2.176 1.3l1.965.553c.254.071.465.156.634.256.169.099.296.213.38.34a.69.69 0 0 1 .127.426c0 .327-.12.582-.359.767-.239.184-.585.277-1.035.277-.62 0-1.183-.178-1.691-.533-.507-.355-.908-.844-1.204-1.47l-2.324 1.108c.338 1.022.972 1.839 1.901 2.45Zm21.049-10.987h2.958V8.8c.217-.425.519-.765.909-1.021.648-.426 1.422-.639 2.324-.639.958 0 1.796.249 2.514.745a3.22 3.22 0 0 1 1.002 1.019c.305-.45.669-.81 1.09-1.082.704-.455 1.529-.682 2.472-.682.831 0 1.564.185 2.198.554a3.921 3.921 0 0 1 1.521 1.554c.366.653.549 1.42.549 2.3v7.474h-3.169V12.23c0-.454-.085-.844-.253-1.17a1.79 1.79 0 0 0-.677-.767c-.296-.185-.655-.277-1.077-.277-.409 0-.768.092-1.078.277-.296.184-.528.44-.697.766-.155.327-.232.717-.232 1.171v6.793h-3.17V12.23c0-.454-.084-.844-.254-1.17a1.775 1.775 0 0 0-.676-.767c-.295-.185-.655-.277-1.077-.277-.409 0-.768.092-1.078.277-.296.184-.528.44-.697.766-.155.327-.233.717-.233 1.171v6.793h-3.169V7.397Zm-7.872 11.882c-.929 0-1.725-.199-2.387-.596a3.948 3.948 0 0 1-1.479-1.704c-.338-.724-.507-1.569-.507-2.534V7.396h3.169v6.793c0 .44.085.83.254 1.172.183.326.436.582.761.766.323.185.69.277 1.098.277.423 0 .789-.092 1.099-.277.324-.184.57-.44.739-.766a2.43 2.43 0 0 0 .275-1.172V7.396h3.169v11.627h-2.958v-1.415a2.85 2.85 0 0 1-1.141 1.181c-.591.327-1.289.49-2.092.49Z"/><path fill-rule="evenodd" d="M90.058 19.279c-1.14 0-2.183-.263-3.127-.788a6.163 6.163 0 0 1-2.24-2.151c-.549-.923-.824-1.966-.824-3.13 0-1.179.275-2.222.824-3.13a6.162 6.162 0 0 1 2.24-2.151c.944-.526 1.986-.788 3.127-.788 1.141 0 2.177.262 3.106.788a5.997 5.997 0 0 1 2.219 2.15c.563.909.845 1.952.845 3.13 0 1.165-.282 2.208-.845 3.13a5.997 5.997 0 0 1-2.219 2.152c-.93.525-1.965.788-3.106.788Zm0-2.875c.578 0 1.078-.135 1.5-.405.437-.27.775-.646 1.014-1.129.254-.482.381-1.036.381-1.66 0-.625-.127-1.172-.38-1.64a2.709 2.709 0 0 0-1.015-1.129c-.422-.284-.922-.426-1.5-.426-.577 0-1.084.142-1.52.426-.438.27-.783.646-1.037 1.129-.239.468-.359 1.015-.359 1.64 0 .624.12 1.178.36 1.66.253.483.598.86 1.035 1.13.437.269.944.404 1.521.404Zm-15.6 6.856c.76.299 1.585.448 2.472.448 1.113 0 2.092-.227 2.937-.682a5.139 5.139 0 0 0 2.029-1.895c.492-.795.74-1.703.74-2.726V7.396h-2.959v1.221a3.97 3.97 0 0 0-1.183-.965c-.62-.341-1.345-.511-2.177-.511-1.056 0-2 .241-2.83.724a5.242 5.242 0 0 0-1.966 2.001c-.479.838-.718 1.803-.718 2.896s.24 2.073.718 2.939a5.35 5.35 0 0 0 1.986 2.023c.845.483 1.803.724 2.874.724.831 0 1.556-.156 2.176-.468.336-.178.64-.402.909-.675v1.1c0 .497-.106.93-.317 1.3a1.897 1.897 0 0 1-.866.83c-.381.199-.832.298-1.353.298-.662 0-1.232-.156-1.711-.468a2.212 2.212 0 0 1-.951-1.278L71.33 20.13c.24.724.627 1.349 1.162 1.874.55.54 1.204.958 1.965 1.257Zm3.761-8.049c-.394.227-.86.341-1.395.341a2.984 2.984 0 0 1-1.436-.34 2.688 2.688 0 0 1-.972-.98c-.225-.412-.338-.888-.338-1.427 0-.554.112-1.036.338-1.448.24-.426.563-.752.972-.98a2.843 2.843 0 0 1 1.436-.362c.522 0 .98.121 1.374.362.394.227.704.554.93.98.225.412.338.894.338 1.448 0 .554-.113 1.036-.338 1.448a2.286 2.286 0 0 1-.909.958Zm-14.356 4.068c-1.141 0-2.183-.263-3.127-.788a6.163 6.163 0 0 1-2.24-2.151c-.55-.923-.824-1.966-.824-3.13 0-1.179.275-2.222.824-3.13a6.162 6.162 0 0 1 2.24-2.151c.944-.526 1.986-.788 3.127-.788 1.141 0 2.176.262 3.106.788a5.996 5.996 0 0 1 2.219 2.15c.563.909.845 1.952.845 3.13 0 1.165-.282 2.208-.845 3.13a5.997 5.997 0 0 1-2.22 2.152c-.929.525-1.964.788-3.105.788Zm0-2.875c.578 0 1.078-.135 1.5-.405.437-.27.775-.646 1.014-1.129.254-.482.38-1.036.38-1.66 0-.625-.126-1.172-.38-1.64a2.708 2.708 0 0 0-1.014-1.129c-.422-.284-.922-.426-1.5-.426s-1.085.142-1.521.426c-.437.27-.782.646-1.035 1.129-.24.468-.36 1.015-.36 1.64 0 .624.12 1.178.36 1.66.253.483.598.86 1.035 1.13.436.269.943.404 1.52.404Z" clip-rule="evenodd"/></g><defs><clipPath id="a"><path fill="#fff" d="M0 0h156v42H0z"/></clipPath></defs></svg>