<svg xmlns="http://www.w3.org/2000/svg" width="40" height="40" fill="none"><path fill="#EE634E" d="M33.333 18.334v-1.25a1.25 1.25 0 0 0-2.5 0v1.25a10.833 10.833 0 0 1-21.666 0v-1.25a1.25 1.25 0 0 0-2.5 0v1.25A13.331 13.331 0 0 0 17.5 31.424V35h-5a2.502 2.502 0 0 0-2.5 2.5v.834a.834.834 0 0 0 .833.833h18.334a.834.834 0 0 0 .833-.834V37.5a2.503 2.503 0 0 0-2.5-2.5h-5v-3.576a13.331 13.331 0 0 0 10.833-13.09Z"/><path fill="#EE634E" d="M15.833 18.334a.833.833 0 0 1-.833.833h-3.291a8.333 8.333 0 0 0 16.582 0H25a.834.834 0 1 1 0-1.667h3.333v-3.333H25a.834.834 0 1 1 0-1.667h3.333V10H25a.833.833 0 0 1 0-1.666h3.291a8.333 8.333 0 0 0-16.582 0H15A.833.833 0 0 1 15 10h-3.333v2.5H15a.834.834 0 0 1 0 1.667h-3.333V17.5H15a.834.834 0 0 1 .833.834Z"/></svg>