<svg xmlns="http://www.w3.org/2000/svg" width="40" height="40" fill="none"><g fill="#EE634E" clip-path="url(#a)"><path d="M40 27.07c0-4.963-2.847-9.393-7.112-11.548-.133 9.517-7.849 17.233-17.366 17.366C17.677 37.153 22.107 40 27.07 40c2.328 0 4.59-.62 6.58-1.797l6.294 1.74-1.741-6.294A12.883 12.883 0 0 0 40 27.07Z"/><path d="M30.547 15.273C30.547 6.852 23.695 0 15.273 0 6.852 0 0 6.851 0 15.273c0 2.745.73 5.418 2.118 7.764L.056 30.49l7.454-2.06a15.226 15.226 0 0 0 7.763 2.118c8.422 0 15.274-6.852 15.274-15.274ZM12.93 11.72h-2.344a4.693 4.693 0 0 1 4.687-4.688 4.693 4.693 0 0 1 4.688 4.688 4.699 4.699 0 0 1-1.524 3.459L16.445 17v1.828h-2.343v-2.86l2.752-2.52a2.32 2.32 0 0 0 .763-1.73 2.346 2.346 0 0 0-2.344-2.343 2.346 2.346 0 0 0-2.343 2.344Zm1.172 9.453h2.343v2.344h-2.343v-2.344Z"/></g><defs><clipPath id="a"><path fill="#fff" d="M0 0h40v40H0z"/></clipPath></defs></svg>