<svg xmlns="http://www.w3.org/2000/svg" width="132" height="40" fill="none"><g fill="#878787" style="mix-blend-mode:luminosity"><path d="M26.902 20.284c0-1.46 1.093-2.477 2.764-2.477 1.67 0 2.764 1.017 2.764 2.477 0 1.444-1.093 2.478-2.764 2.478-1.671 0-2.764-1.034-2.764-2.478Zm14.132-2.544c-1.588 0-2.66.985-2.66 2.33 0 1.362 1.093 2.38 2.66 2.38 1.733 0 2.888-1.034 2.888-2.38 0-1.329-1.155-2.33-2.888-2.33Zm9.206 2.544c0-1.46 1.094-2.477 2.765-2.477 1.67 0 2.764 1.017 2.764 2.477 0 1.444-1.093 2.478-2.764 2.478-1.671 0-2.765-1.034-2.765-2.478Zm16.81.016c0-1.46 1.114-2.478 2.868-2.478 1.753 0 2.805 1.034 2.805 2.478 0 1.444-1.052 2.46-2.805 2.46-1.754 0-2.868-1-2.868-2.46Z"/><path fill-rule="evenodd" d="M66 37.45c35.049 0 63.462-7.93 63.462-17.713 0-9.783-28.413-17.713-63.461-17.713-35.049 0-63.462 7.93-63.462 17.713 0 9.782 28.413 17.712 63.462 17.712ZM22.826 24.352V12.146h-2.517v12.207h2.517Zm1.54-4.07c0 2.495 2.105 4.267 5.302 4.267 3.197 0 5.301-1.772 5.301-4.266 0-2.494-2.104-4.266-5.301-4.266-3.198 0-5.302 1.772-5.302 4.266ZM40.6 24.19c-2.867 0-4.785-1.706-4.785-4.07 0-2.378 1.96-4.134 4.868-4.134 1.505 0 2.784.509 3.403 1.362l.145-1.1h2.227v7.696c0 2.674-2.104 4.397-5.404 4.397-2.806 0-4.848-1.378-5.178-3.495h2.538c.144 1.067 1.217 1.674 2.784 1.674 1.754 0 2.806-.886 2.806-2.215v-1.378c-.64.787-1.919 1.263-3.404 1.263Zm7.104-3.905c0 2.494 2.104 4.266 5.301 4.266s5.301-1.772 5.301-4.266c0-2.494-2.103-4.266-5.3-4.266-3.198 0-5.302 1.772-5.302 4.266Zm14.832-6.891c0 .672-.68 1.197-1.506 1.197-.846 0-1.485-.524-1.485-1.197 0-.657.64-1.182 1.485-1.182.825 0 1.506.525 1.506 1.182Zm-.248 2.855v8.105h-2.516v-8.105h2.516Zm2.205 11.862h2.455v-4.873c.64.837 2.021 1.33 3.548 1.33 3.011 0 4.806-1.838 4.765-4.365-.062-2.543-1.898-4.2-4.786-4.2-1.547 0-2.95.541-3.569 1.476l-.144-1.23h-2.269V28.11Zm15.491-3.544c-2.434 0-4.002-1.033-4.084-2.641h2.29c0 .705.639 1.115 1.753 1.115.928 0 1.691-.295 1.691-.935 0-.46-.412-.705-1.072-.853l-1.774-.361c-1.96-.41-2.723-1.28-2.723-2.33 0-1.542 1.63-2.56 3.816-2.56 2.207 0 3.713 1.018 3.795 2.626h-2.29c0-.706-.618-1.132-1.567-1.132-.908 0-1.465.393-1.465.951 0 .525.516.739 1.28.903l1.794.344c1.67.328 2.578 1.116 2.578 2.28 0 1.576-1.63 2.593-4.022 2.593Zm9.243 0c1.381 0 2.701-.508 3.3-1.263l.165 1.05h2.352v-8.105h-2.517v4.25c0 1.46-.702 2.28-2.352 2.28-1.278 0-2.165-.492-2.165-2.166v-4.364h-2.517v5.07c0 1.936 1.32 3.248 3.734 3.248Zm10.554-4.873v4.66h-2.516v-8.105h2.31l.124.918c.598-.721 1.671-1.165 2.867-1.165 1.691 0 2.805.591 3.362 1.543.496-.952 1.713-1.543 3.26-1.543 2.475 0 3.774 1.182 3.774 3.052v5.3h-2.434v-4.84c0-1.149-.783-1.756-2-1.756-1.197 0-2.146.624-2.146 1.953v4.643h-2.455v-4.84c0-1.149-.783-1.756-1.98-1.756-1.196 0-2.166.624-2.166 1.936Z" clip-rule="evenodd"/></g></svg>